<?xml version="1.0" encoding="utf-8"?>
<!-- Generator: Adobe Illustrator 22.1.0, SVG Export Plug-In . SVG Version: 6.00 Build 0)  -->
<svg version="1.1" id="Layer_1" xmlns="http://www.w3.org/2000/svg" xmlns:xlink="http://www.w3.org/1999/xlink" x="0px" y="0px"
	 viewBox="0 0 215 40" style="enable-background:new 0 0 215 40;" xml:space="preserve">
<style type="text/css">
	.st0{fill:#4D4D4D;}
	.st1{fill:#FFFFFF;}
	.st2{fill:#D3D3D3;}
	.st3{fill:#F15A24;}
	.st4{fill:#C1272D;}
	.st5{fill:#F7931E;}
	.st6{fill:#FBB03B;}
	.st7{fill:#ED1C24;}
	.st8{fill:#333333;}
</style>
<g>
	<g>
		<path d="M55,25.6v4.3h-6V9.6c0-0.6,0.3-0.9,0.8-0.9h17.4c2,0,3.4,0.4,4.3,1.3c0.9,0.9,1.3,2.1,1.3,3.7v1.9c0,0.9-0.2,1.5-0.5,2.1
			c-0.3,0.5-0.7,0.9-1.2,1.2c0.6,0.3,1.1,0.8,1.5,1.4c0.4,0.6,0.6,1.3,0.6,2.2v1.9c0,1.8-0.4,3.1-1.3,4.1c-0.8,0.9-2.3,1.4-4.3,1.4
			H56.9l-1.7-4.3H55z M55.5,13.4c-0.3,0-0.5,0.2-0.5,0.5v3.6h10c0.7,0,1.1-0.1,1.4-0.4c0.3-0.3,0.4-0.7,0.4-1.3v-0.6
			c0-0.6-0.1-1.1-0.4-1.4c-0.3-0.3-0.7-0.4-1.4-0.4H55.5z M55,20.9v4h10.4c0.5,0,0.9-0.1,1.1-0.4c0.2-0.3,0.4-0.7,0.4-1.3v-0.6
			c0-0.6-0.1-1.1-0.3-1.3s-0.6-0.4-1.2-0.4H55z"/>
		<path d="M75.4,11.4V7.2h5.3v4.2H75.4z M75.4,29.9V13.9h5.3v15.9H75.4z"/>
		<path d="M103.8,23.5c0,1-0.1,1.8-0.3,2.6c-0.2,0.8-0.6,1.4-1.1,2c-0.5,0.6-1.2,1-2,1.3c-0.8,0.3-1.8,0.5-3,0.5h-7.7
			c-1.2,0-2.2-0.2-3-0.5s-1.5-0.7-2-1.3c-0.5-0.6-0.9-1.2-1.1-2c-0.2-0.8-0.3-1.6-0.3-2.6v-3.3c0-0.9,0.1-1.8,0.3-2.6
			c0.2-0.8,0.6-1.5,1.1-2c0.5-0.6,1.2-1,2-1.3c0.8-0.3,1.8-0.5,3-0.5h7.7c1.2,0,2.2,0.2,3,0.5c0.8,0.3,1.5,0.7,2,1.3
			c0.5,0.6,0.9,1.2,1.1,2c0.2,0.8,0.3,1.7,0.3,2.6V23.5z M96.3,25.2c0.8,0,1.4-0.2,1.7-0.5c0.3-0.3,0.5-0.9,0.5-1.9v-2.2
			c0-1-0.2-1.6-0.5-2c-0.3-0.3-0.9-0.5-1.7-0.5h-5.7c-0.8,0-1.4,0.2-1.7,0.5c-0.3,0.4-0.5,1-0.5,2v2.2c0,0.9,0.2,1.5,0.5,1.9
			c0.3,0.3,0.9,0.5,1.7,0.5H96.3z"/>
		<path d="M125.2,16.1h-0.2v-2.3c0-0.2-0.1-0.3-0.3-0.3h-11.1c-0.4,0-0.7,0.1-0.8,0.3c-0.2,0.2-0.2,0.4-0.2,0.8v0.5
			c0,0.4,0.1,0.7,0.2,0.8c0.1,0.1,0.4,0.2,0.8,0.3l13.1,1.8c0.8,0.1,1.5,0.3,2.1,0.5c0.6,0.2,1.1,0.6,1.4,1c0.4,0.4,0.6,0.9,0.8,1.5
			c0.2,0.6,0.2,1.3,0.2,2.1v1.7c0,0.9-0.1,1.6-0.3,2.3c-0.2,0.7-0.6,1.2-1,1.7s-1.1,0.8-1.9,1c-0.8,0.2-1.8,0.3-2.9,0.3H106v-5.5
			h16.9c0.5,0,0.8-0.1,1-0.3c0.2-0.2,0.2-0.5,0.2-1v-0.6c0-0.4-0.1-0.6-0.2-0.8c-0.1-0.1-0.4-0.2-0.7-0.3l-12.7-1.6
			c-0.9-0.1-1.6-0.3-2.2-0.5c-0.6-0.2-1.1-0.5-1.5-0.9c-0.4-0.4-0.7-0.9-0.8-1.4c-0.2-0.6-0.3-1.2-0.3-2v-1.5c0-1.5,0.4-2.7,1.2-3.6
			c0.8-0.8,2.2-1.3,4.1-1.3h18.8c0.6,0,0.9,0.3,0.9,0.9V14L125.2,16.1z"/>
		<path d="M145.4,17.9h-4.6v11.9h-5.3V17.9h-2.1l-1.5-3.8v-0.2h3.5V8.7h5.3v5.2h4.6V17.9z"/>
		<path d="M147.3,17.9v-3.9h14.8c1,0,1.8,0.3,2.3,0.9c0.5,0.6,0.7,1.4,0.7,2.5v11.8c0,0.5-0.2,0.7-0.7,0.7h-13.9
			c-0.6,0-1.1-0.1-1.6-0.2c-0.5-0.1-0.8-0.4-1.2-0.7c-0.3-0.3-0.6-0.8-0.7-1.4c-0.2-0.6-0.2-1.3-0.2-2.1v-1.2c0-1.5,0.3-2.6,1-3.2
			c0.6-0.6,1.6-1,2.7-1h8.1l1,2.4h0.2v-3.2c0-0.4-0.1-0.8-0.3-1c-0.2-0.2-0.5-0.3-0.8-0.3H147.3z M159.6,25.9c0.2,0,0.3-0.1,0.3-0.3
			v-2.4H153c-0.3,0-0.6,0.1-0.7,0.3c-0.1,0.2-0.2,0.4-0.2,0.8v0.7c0,0.3,0.1,0.6,0.2,0.8c0.1,0.2,0.4,0.3,0.7,0.3H159.6z"/>
		<path d="M179.1,17.9h-4.6v11.9h-5.3V17.9h-2.1l-1.5-3.8v-0.2h3.5V8.7h5.3v5.2h4.6V17.9z"/>
		<path d="M180.8,25.4h13c0.3,0,0.5-0.1,0.6-0.2c0.1-0.1,0.2-0.3,0.2-0.6v-0.3c0-0.2,0-0.4-0.1-0.5c-0.1-0.1-0.2-0.2-0.5-0.2
			l-9.9-0.8c-1.2-0.1-2.1-0.5-2.7-1.1c-0.6-0.7-0.9-1.5-0.9-2.6v-1.3c0-1.2,0.3-2.1,1-2.7c0.6-0.7,1.7-1,3.1-1h14.4
			c0.5,0,0.7,0.2,0.7,0.7v3.6l-4.5,1.7h-0.2v-1.8c0-0.2-0.1-0.2-0.2-0.2h-8.3c-0.3,0-0.5,0.1-0.6,0.2c-0.1,0.1-0.2,0.3-0.2,0.6V19
			c0,0.3,0,0.4,0.1,0.5c0.1,0.1,0.2,0.1,0.5,0.2l10.1,1c0.7,0.1,1.2,0.2,1.7,0.4c0.4,0.2,0.8,0.5,1.1,0.8c0.3,0.3,0.5,0.7,0.6,1.2
			c0.1,0.5,0.2,1,0.2,1.6v1.2c0,1.3-0.3,2.3-1,3c-0.7,0.7-1.9,1-3.6,1h-14.6V25.4z"/>
	</g>
	<g>
		<path class="st0" d="M47,31.9V9.6c0-1.7,1.2-2.9,2.8-2.9h17.4c2.5,0,4.4,0.6,5.7,1.9c1.2,1.3,1.9,3,1.9,5.1v1.9
			c0,1.2-0.3,2.3-0.8,3.1c0.1,0.1,0.2,0.3,0.3,0.4c0.6,0.9,1,2.1,1,3.4v1.9c0,2.3-0.6,4.1-1.8,5.4c-1.2,1.4-3.2,2.1-5.8,2.1H47z
			 M64.9,15.5L64.9,15.5L57,15.4v0.1H64.9z"/>
		<rect x="73.4" y="5.2" class="st0" width="9.3" height="26.6"/>
		<path class="st0" d="M89.6,31.9c-1.4,0-2.7-0.2-3.7-0.6c-1.1-0.4-2-1-2.8-1.8c-0.7-0.8-1.3-1.7-1.6-2.8c-0.3-1-0.4-2-0.4-3.2v-3.3
			c0-1.1,0.1-2.2,0.4-3.2c0.3-1.1,0.9-2,1.6-2.8c0.7-0.8,1.7-1.4,2.8-1.8c1-0.4,2.3-0.6,3.7-0.6h7.7c1.4,0,2.7,0.2,3.7,0.6
			c1.1,0.4,2.1,1,2.8,1.8c0.7,0.8,1.3,1.7,1.6,2.8c0.3,1,0.4,2,0.4,3.2v3.3c0,1.2-0.1,2.2-0.4,3.2c-0.3,1.1-0.9,2-1.6,2.8
			c-0.7,0.8-1.7,1.4-2.8,1.8c-1.1,0.4-2.3,0.6-3.7,0.6H89.6z M90.6,23.2h5.7c0.1,0,0.2,0,0.2,0c0-0.1,0-0.2,0-0.3v-2.2
			c0-0.2,0-0.4,0-0.5c-0.1,0-0.1,0-0.2,0h-5.7c-0.1,0-0.1,0-0.2,0c0,0.1,0,0.3,0,0.5v2.2c0,0.1,0,0.3,0,0.3
			C90.4,23.2,90.5,23.2,90.6,23.2z"/>
		<path class="st0" d="M104,31.9v-9.5h10.1l-3.9-0.5c-1-0.1-1.9-0.4-2.7-0.6c-0.9-0.3-1.6-0.8-2.2-1.4c-0.6-0.6-1.1-1.4-1.3-2.2
			c-0.2-0.8-0.3-1.6-0.3-2.6v-1.5c0-2.1,0.6-3.7,1.8-4.9c1.2-1.2,3-1.9,5.5-1.9h18.8c1.7,0,2.9,1.2,2.9,2.9v5.8l-3.1,1.2
			c0.8,0.3,1.4,0.8,1.9,1.4c0.6,0.6,1,1.4,1.2,2.3c0.2,0.7,0.3,1.6,0.3,2.6v1.7c0,1.1-0.1,2.1-0.4,2.9c-0.3,1-0.8,1.8-1.6,2.5
			c-0.7,0.7-1.6,1.2-2.7,1.5c-1,0.3-2.1,0.4-3.5,0.4H104z"/>
		<polygon class="st0" points="133.5,31.9 133.5,19.9 132.1,19.9 130,14.5 130,11.9 133.5,11.9 133.5,6.7 142.8,6.7 142.8,11.9 
			147.4,11.9 147.4,19.9 142.8,19.9 142.8,31.9 		"/>
		<path class="st0" d="M150.6,31.9c-0.8,0-1.5-0.1-2.2-0.3c-0.8-0.3-1.5-0.7-2-1.3c-0.5-0.6-0.9-1.3-1.2-2.2
			c-0.2-0.8-0.3-1.6-0.3-2.7v-1.2c0-1.8,0.4-3.3,1.3-4.3h-0.9v-7.9h16.8c2.1,0,3.2,0.9,3.8,1.6c0.8,0.9,1.2,2.2,1.2,3.8v11.8
			c0,1.6-1.1,2.7-2.7,2.7H150.6z"/>
		<polygon class="st0" points="167.2,31.9 167.2,19.9 165.8,19.9 163.7,14.5 163.7,11.9 167.2,11.9 167.2,6.7 176.5,6.7 176.5,11.9 
			181.1,11.9 181.1,19.9 176.5,19.9 176.5,31.9 		"/>
		<path class="st0" d="M178.8,31.9v-8.5h1.7c-0.2-0.1-0.3-0.3-0.5-0.5c-0.9-1-1.4-2.4-1.4-4v-1.3c0-1.7,0.5-3.1,1.5-4.1
			c1-1.1,2.6-1.6,4.6-1.6h14.4c1.6,0,2.7,1.1,2.7,2.7v5l-1.4,0.5c0.1,0.1,0.3,0.3,0.4,0.4c0.5,0.6,0.8,1.3,1,2
			c0.1,0.6,0.2,1.3,0.2,2.1v1.2c0,1.8-0.5,3.3-1.6,4.3c-1.1,1.1-2.7,1.7-5,1.7H178.8z"/>
	</g>
	<g>
		<path class="st1" d="M55,25.6v4.3h-6V9.6c0-0.6,0.3-0.9,0.8-0.9h17.4c2,0,3.4,0.4,4.3,1.3c0.9,0.9,1.3,2.1,1.3,3.7v1.9
			c0,0.9-0.2,1.5-0.5,2.1c-0.3,0.5-0.7,0.9-1.2,1.2c0.6,0.3,1.1,0.8,1.5,1.4c0.4,0.6,0.6,1.3,0.6,2.2v1.9c0,1.8-0.4,3.1-1.3,4.1
			c-0.8,0.9-2.3,1.4-4.3,1.4H56.9l-1.7-4.3H55z M55.5,13.4c-0.3,0-0.5,0.2-0.5,0.5v3.6h10c0.7,0,1.1-0.1,1.4-0.4
			c0.3-0.3,0.4-0.7,0.4-1.3v-0.6c0-0.6-0.1-1.1-0.4-1.4c-0.3-0.3-0.7-0.4-1.4-0.4H55.5z M55,20.9v4h10.4c0.5,0,0.9-0.1,1.1-0.4
			c0.2-0.3,0.4-0.7,0.4-1.3v-0.6c0-0.6-0.1-1.1-0.3-1.3s-0.6-0.4-1.2-0.4H55z"/>
		<path class="st1" d="M75.4,11.4V7.2h5.3v4.2H75.4z M75.4,29.9V13.9h5.3v15.9H75.4z"/>
		<path class="st1" d="M103.8,23.5c0,1-0.1,1.8-0.3,2.6c-0.2,0.8-0.6,1.4-1.1,2c-0.5,0.6-1.2,1-2,1.3c-0.8,0.3-1.8,0.5-3,0.5h-7.7
			c-1.2,0-2.2-0.2-3-0.5s-1.5-0.7-2-1.3c-0.5-0.6-0.9-1.2-1.1-2c-0.2-0.8-0.3-1.6-0.3-2.6v-3.3c0-0.9,0.1-1.8,0.3-2.6
			c0.2-0.8,0.6-1.5,1.1-2c0.5-0.6,1.2-1,2-1.3c0.8-0.3,1.8-0.5,3-0.5h7.7c1.2,0,2.2,0.2,3,0.5c0.8,0.3,1.5,0.7,2,1.3
			c0.5,0.6,0.9,1.2,1.1,2c0.2,0.8,0.3,1.7,0.3,2.6V23.5z M96.3,25.2c0.8,0,1.4-0.2,1.7-0.5c0.3-0.3,0.5-0.9,0.5-1.9v-2.2
			c0-1-0.2-1.6-0.5-2c-0.3-0.3-0.9-0.5-1.7-0.5h-5.7c-0.8,0-1.4,0.2-1.7,0.5c-0.3,0.4-0.5,1-0.5,2v2.2c0,0.9,0.2,1.5,0.5,1.9
			c0.3,0.3,0.9,0.5,1.7,0.5H96.3z"/>
		<path class="st1" d="M125.2,16.1h-0.2v-2.3c0-0.2-0.1-0.3-0.3-0.3h-11.1c-0.4,0-0.7,0.1-0.8,0.3c-0.2,0.2-0.2,0.4-0.2,0.8v0.5
			c0,0.4,0.1,0.7,0.2,0.8c0.1,0.1,0.4,0.2,0.8,0.3l13.1,1.8c0.8,0.1,1.5,0.3,2.1,0.5c0.6,0.2,1.1,0.6,1.4,1c0.4,0.4,0.6,0.9,0.8,1.5
			c0.2,0.6,0.2,1.3,0.2,2.1v1.7c0,0.9-0.1,1.6-0.3,2.3c-0.2,0.7-0.6,1.2-1,1.7s-1.1,0.8-1.9,1c-0.8,0.2-1.8,0.3-2.9,0.3H106v-5.5
			h16.9c0.5,0,0.8-0.1,1-0.3c0.2-0.2,0.2-0.5,0.2-1v-0.6c0-0.4-0.1-0.6-0.2-0.8c-0.1-0.1-0.4-0.2-0.7-0.3l-12.7-1.6
			c-0.9-0.1-1.6-0.3-2.2-0.5c-0.6-0.2-1.1-0.5-1.5-0.9c-0.4-0.4-0.7-0.9-0.8-1.4c-0.2-0.6-0.3-1.2-0.3-2v-1.5c0-1.5,0.4-2.7,1.2-3.6
			c0.8-0.8,2.2-1.3,4.1-1.3h18.8c0.6,0,0.9,0.3,0.9,0.9V14L125.2,16.1z"/>
		<path class="st1" d="M145.4,17.9h-4.6v11.9h-5.3V17.9h-2.1l-1.5-3.8v-0.2h3.5V8.7h5.3v5.2h4.6V17.9z"/>
		<path class="st1" d="M147.3,17.9v-3.9h14.8c1,0,1.8,0.3,2.3,0.9c0.5,0.6,0.7,1.4,0.7,2.5v11.8c0,0.5-0.2,0.7-0.7,0.7h-13.9
			c-0.6,0-1.1-0.1-1.6-0.2c-0.5-0.1-0.8-0.4-1.2-0.7c-0.3-0.3-0.6-0.8-0.7-1.4c-0.2-0.6-0.2-1.3-0.2-2.1v-1.2c0-1.5,0.3-2.6,1-3.2
			c0.6-0.6,1.6-1,2.7-1h8.1l1,2.4h0.2v-3.2c0-0.4-0.1-0.8-0.3-1c-0.2-0.2-0.5-0.3-0.8-0.3H147.3z M159.6,25.9c0.2,0,0.3-0.1,0.3-0.3
			v-2.4H153c-0.3,0-0.6,0.1-0.7,0.3c-0.1,0.2-0.2,0.4-0.2,0.8v0.7c0,0.3,0.1,0.6,0.2,0.8c0.1,0.2,0.4,0.3,0.7,0.3H159.6z"/>
		<path class="st1" d="M179.1,17.9h-4.6v11.9h-5.3V17.9h-2.1l-1.5-3.8v-0.2h3.5V8.7h5.3v5.2h4.6V17.9z"/>
		<path class="st1" d="M180.8,25.4h13c0.3,0,0.5-0.1,0.6-0.2c0.1-0.1,0.2-0.3,0.2-0.6v-0.3c0-0.2,0-0.4-0.1-0.5
			c-0.1-0.1-0.2-0.2-0.5-0.2l-9.9-0.8c-1.2-0.1-2.1-0.5-2.7-1.1c-0.6-0.7-0.9-1.5-0.9-2.6v-1.3c0-1.2,0.3-2.1,1-2.7
			c0.6-0.7,1.7-1,3.1-1h14.4c0.5,0,0.7,0.2,0.7,0.7v3.6l-4.5,1.7h-0.2v-1.8c0-0.2-0.1-0.2-0.2-0.2h-8.3c-0.3,0-0.5,0.1-0.6,0.2
			c-0.1,0.1-0.2,0.3-0.2,0.6V19c0,0.3,0,0.4,0.1,0.5c0.1,0.1,0.2,0.1,0.5,0.2l10.1,1c0.7,0.1,1.2,0.2,1.7,0.4
			c0.4,0.2,0.8,0.5,1.1,0.8c0.3,0.3,0.5,0.7,0.6,1.2c0.1,0.5,0.2,1,0.2,1.6v1.2c0,1.3-0.3,2.3-1,3c-0.7,0.7-1.9,1-3.6,1h-14.6V25.4z
			"/>
	</g>
</g>
<g>
	<polygon class="st2" points="35.2,4 16.1,4 6.6,20.5 16.1,37 35.2,37 44.7,20.5 	"/>
</g>
<g>
	<path class="st3" d="M14.2,19.2c0-3.2,0.1-6.5,0.1-9.7c0-1.1,0.3-1.4,1.4-1.3c1.9,0.1,3.8,0.1,5.6,0c0.8,0,1.1,0.2,1.1,1.1
		c0,5.3,0,10.6,0,15.9c0,4,0,8-0.1,12c-1.7,0-3.5,0-5.2,0.1c-0.6,0-0.9-0.2-1.1-0.7c-0.5-1-1.1-2-1.7-3c0-2.6,0.1-5.2,0.1-7.7
		C14.3,23.6,14.4,21.4,14.2,19.2z"/>
	<path class="st4" d="M30.2,25.2c0-2,0.1-4.1,0-6.1c0-0.7,0.2-0.9,0.9-0.9c2.1,0,4.2,0,6.2,0c0.7,0,1,0.1,1,0.9c-0.1,0.7,0,1.4,0,2
		c-0.2,3.7-0.1,7.4,0,11.2c-0.8,1.4-1.6,2.8-2.4,4.2c-0.3,0.5-0.6,0.7-1.1,0.7c-1.5-0.1-3,0-4.5-0.1C30.2,33.2,30.2,29.2,30.2,25.2z
		"/>
	<path class="st5" d="M30.2,25.2c0,4,0,8,0,12c-2.7,0-5.3,0-8,0c0-4,0-8,0.1-12C24.9,25.2,27.5,25.2,30.2,25.2z"/>
	<path class="st6" d="M14.2,19.2c0.2,2.2,0.1,4.4,0.1,6.7c0,2.6,0,5.2-0.1,7.7c-2.4-4.1-4.8-8.2-7.1-12.3c-0.5-0.9,0.2-2.1,1.2-2.1
		C10.3,19.2,12.2,19.2,14.2,19.2z"/>
	<path class="st7" d="M38.2,32.3c-0.1-3.7-0.2-7.4,0-11.2c2.1,0,4.1,0,6.5,0C42.5,25,40.4,28.7,38.2,32.3z"/>
</g>
<path class="st8" d="M35.7,3H15.5L5.4,20.5L15.5,38h20.2l10.1-17.5L35.7,3z M16.7,5H34l-7.3,15.5h-19L16.7,5z M8.3,21.5h18.4
	L33.9,36H16.7L8.3,21.5z M34.8,35.6L27.6,21l7.3-15.5l8.7,15L34.8,35.6z"/>
</svg>
