<?xml version="1.0" encoding="utf-8"?>
<!-- Generator: Adobe Illustrator 22.1.0, SVG Export Plug-In . SVG Version: 6.00 Build 0)  -->
<svg version="1.1" id="Layer_1" xmlns="http://www.w3.org/2000/svg" xmlns:xlink="http://www.w3.org/1999/xlink" x="0px" y="0px"
	 viewBox="0 0 964 686" style="enable-background:new 0 0 964 686;" xml:space="preserve">
<style type="text/css">
	.st0{fill:none;}
	.st1{enable-background:new    ;}
	.st2{fill:#5B5B5B;}
	.st3{fill:#FCCA52;}
	.st4{fill:#FFFFFF;}
	.st5{fill:#B3B3B3;}
	.st6{fill:#E6E6E6;}
	.st7{fill:#808080;}
</style>
<g>
	<g>
		<g>
			<rect x="26.8" y="562" class="st0" width="923" height="119"/>
		</g>
	</g>
	<g>
		<g class="st1">
			<g>
				<path class="st2" d="M96.2,649.8H58.7c-1.1,0-2.2-0.2-3.2-0.6c-1,0.4-2.1,0.6-3.2,0.6H31.4c-5,0-9-4-9-9v-70.5c0-7,5-12,11.9-12
					h60.4c9.3,0,16.5,2.4,21.2,7.3c4.7,4.8,7.1,11.3,7.1,19.3v6.5c0,4.1-0.8,7.7-2.5,10.7c0.1,0.2,0.2,0.3,0.3,0.5
					c2.4,3.6,3.7,7.9,3.7,12.8v6.5c0,8.5-2.3,15.3-6.7,20.2C113.3,647.2,105.9,649.8,96.2,649.8z M93.4,631.8h2.8c5,0,7.6-1,8.4-1.9
					c1.7-1.9,2.1-5.4,2.1-8.1v-6.5c0-0.9-0.1-2-0.6-2.7c-0.5-0.8-1.2-1.4-1.9-1.7c-1-0.5-1.9-1.2-2.6-2c0.7,1.9,1.1,4.1,1.1,6.6v2.1
					c0,4.6-1.3,8.2-3.8,10.8C97.7,629.6,96,631,93.4,631.8z M40.4,631.8h2.8v-6c0-0.4,0-0.7,0.1-1.1c0-0.4-0.1-0.7-0.1-1.1v-13.8
					c0-2.3,0.9-4.4,2.3-6c-1.4-1.6-2.3-3.7-2.3-6v-12.4c0-3.9,1.9-7.2,4.9-9.1h-7.7V631.8z M97.6,603.5c0.6,0.5,1.2,1,1.6,1.5
					c0.1,0.1,0.3,0.3,0.4,0.4c-0.2-0.6-0.3-1.3-0.4-2c0-0.5,0-1,0-1.6c-0.3,0.4-0.7,0.8-1.1,1.1C98,603.2,97.8,603.4,97.6,603.5z
					 M95.1,576.3c1.2,0.6,2.3,1.3,3.2,2.2c2.8,2.7,4.2,6.4,4.2,11.2v2.2c0,1.6-0.2,3.1-0.5,4.4c0.3-0.3,0.7-0.6,1.1-0.9
					c0.6-0.4,1.2-1.1,1.8-2c0.1-0.1,0.3-0.8,0.3-2.2v-6.5c0-3.1-0.7-5.3-1.9-6.7C102.8,577.7,100.9,576.3,95.1,576.3z M87.8,588.7
					L87.8,588.7z"/>
			</g>
			<g>
				<path class="st2" d="M141.3,649.8H123c-5,0-9-4-9-9v-55.4c0-1.6,0.4-3.1,1.1-4.3c-0.7-1.3-1.1-2.8-1.1-4.3V562c0-5,4-9,9-9h18.3
					c5,0,9,4,9,9v14.6c0,1.6-0.4,3.1-1.1,4.3c0.7,1.3,1.1,2.8,1.1,4.3v55.4C150.3,645.8,146.3,649.8,141.3,649.8z M132,631.8h0.3
					v-37.4H132V631.8z"/>
			</g>
			<g>
				<path class="st2" d="M199.1,649.8h-26.7c-5.2,0-9.7-0.7-13.5-2.1c-4.2-1.5-7.7-3.8-10.5-6.7s-4.8-6.5-6-10.5
					c-1.1-3.5-1.6-7.4-1.6-11.7v-11.4c0-4.2,0.5-8.1,1.6-11.6c1.2-4.1,3.2-7.6,6-10.6c2.8-2.9,6.3-5.2,10.5-6.7
					c3.8-1.4,8.4-2.1,13.5-2.1h26.7c5.1,0,9.7,0.7,13.6,2.1c4.2,1.5,7.8,3.8,10.6,6.7c2.8,3,4.8,6.5,6,10.6
					c1.1,3.5,1.6,7.4,1.6,11.6v11.4c0,4.2-0.5,8.2-1.6,11.7c-1.2,4-3.2,7.6-6,10.5s-6.3,5.2-10.5,6.7
					C208.8,649.1,204.2,649.8,199.1,649.8z M162.3,596.8c-0.3,0.2-0.6,0.5-0.8,0.7c-0.8,0.9-1.4,2-1.8,3.3c-0.6,1.9-0.8,4.1-0.8,6.5
					v11.4c0,2.5,0.3,4.7,0.8,6.5c0.4,1.3,1,2.4,1.9,3.3c0.9,0.9,2,1.6,3.6,2.2c0.2,0.1,0.5,0.2,0.7,0.2c-0.9-0.6-1.7-1.2-2.4-1.9
					c-2.8-2.9-4.2-7.1-4.2-12.7v-7.8C159.2,603.6,160.2,599.7,162.3,596.8z M209.5,596.9c2,2.9,3,6.7,3,11.6v7.8
					c0,5.7-1.4,9.9-4.4,12.8c-0.7,0.7-1.4,1.3-2.2,1.8c0.2-0.1,0.4-0.1,0.6-0.2c1.5-0.6,2.8-1.3,3.6-2.2s1.5-2,1.9-3.3
					c0.6-1.8,0.8-4,0.8-6.5v-11.4c0-2.4-0.3-4.6-0.8-6.5c-0.4-1.4-1-2.4-1.8-3.3C209.9,597.3,209.7,597.1,209.5,596.9z M177.2,615.5
					h17.3v-6.6h-17.3V615.5z"/>
			</g>
			<g>
				<path class="st2" d="M275.8,649.8H255c-5,0-9-4-9-9v-46.1h-21.5c-3.7,0-7.1-2.3-8.4-5.8l-6.8-17.6c-0.4-1-0.6-2.1-0.6-3.2v-0.8
					c0-5,4-9,9-9h97.5c6.9,0,11.9,5.1,11.9,12v19.1c0,3.8-2.3,7.1-5.9,8.4l-19.3,7.2c-1,0.4-2.1,0.6-3.1,0.6H298c-5,0-9-4-9-9v-1.9
					h-4.2v46.1C284.8,645.8,280.7,649.8,275.8,649.8z M263.9,631.8h2.8v-46.1c0-5,4-9,9-9h21.1c4.7,0,8.6,3.1,9.8,7.4l2.5-0.9v-6.9
					h-78.6l0.1,0.4h24.3c5,0,9,4,9,9L263.9,631.8L263.9,631.8z"/>
			</g>
			<g>
				<path class="st2" d="M392.6,649.8h-18.3c-5,0-9-4-9-9v-31.9H352v31.9c0,5-4,9-9,9h-18.3c-5,0-9-4-9-9V562c0-5,4-9,9-9H343
					c5,0,9,4,9,9v14.3h18c5.1,0,9.7,0.7,13.6,2.1c4.2,1.5,7.8,3.8,10.6,6.8c2.7,2.9,4.7,6.5,5.9,10.5c1.1,3.5,1.6,7.5,1.6,11.7v33.4
					C401.6,645.8,397.6,649.8,392.6,649.8z M383.3,631.8h0.3v-24.4c0-2.5-0.3-4.7-0.8-6.5c-0.4-1.4-1-2.5-1.9-3.4
					c-0.4-0.4-0.8-0.7-1.3-1.1c2.5,3,3.7,7.1,3.7,12.2L383.3,631.8L383.3,631.8z M333.7,631.8h0.3v-40c0-1.1,0.2-2.2,0.6-3.2
					c-0.4-1-0.6-2.1-0.6-3.2V571h-0.3V631.8z M367.2,608.9L367.2,608.9L367.2,608.9z"/>
			</g>
			<g>
				<path class="st2" d="M419.9,649.8h-18.3c-5,0-9-4-9-9v-55.4c0-1.6,0.4-3.1,1.1-4.3c-0.7-1.3-1.1-2.8-1.1-4.3V562c0-5,4-9,9-9
					h18.3c5,0,9,4,9,9v14.6c0,1.6-0.4,3.1-1.1,4.3c0.7,1.3,1.1,2.8,1.1,4.3v55.4C428.9,645.8,424.8,649.8,419.9,649.8z M410.6,631.8
					h0.3v-37.4h-0.3V631.8z"/>
			</g>
			<g>
				<path class="st2" d="M497.1,649.8h-18.3c-5,0-9-4-9-9v-31.9h-13.3v31.9c0,5-4,9-9,9h-18.3c-5,0-9-4-9-9v-55.4c0-5,4-9,9-9h45.2
					c5.1,0,9.7,0.7,13.6,2.1c4.2,1.5,7.8,3.8,10.6,6.8c2.7,2.9,4.7,6.5,5.9,10.5c1.1,3.5,1.6,7.5,1.6,11.7v33.4
					C506.1,645.8,502.1,649.8,497.1,649.8z M487.9,631.8h0.3v-24.4c0-2.5-0.3-4.7-0.8-6.5c-0.4-1.4-1-2.5-1.9-3.4
					c-0.3-0.3-0.6-0.6-1-0.9c2.3,3,3.4,6.9,3.4,12V631.8z M438.3,631.8h0.3v-37.4h-0.3V631.8z"/>
			</g>
			<g>
				<path class="st2" d="M550.4,672.5h-42.9c-5,0-9-4-9-9V648c0-4.3,3.1-8,7.1-8.8c-0.6-0.5-1.2-1-1.8-1.6
					c-5.2-5.1-7.9-12.4-7.9-21.7v-8.7c0-4.2,0.5-8.2,1.6-11.7c1.2-4,3.2-7.6,6-10.5s6.3-5.2,10.5-6.7c3.9-1.4,8.4-2.1,13.6-2.1h40.3
					c8.3,0,14,5.8,14,14.1v51.5c0,4.1-0.5,7.9-1.5,11.4c-1.2,4-3.1,7.5-5.8,10.4s-6.3,5.2-10.5,6.7
					C560.2,671.8,555.7,672.5,550.4,672.5z M563.6,635.2c0,0.3,0.1,0.7,0.1,1v4.4c0,4.8-1.3,8.7-3.8,11.6c-0.3,0.3-0.5,0.6-0.8,0.8
					c1.1-0.5,1.9-1,2.5-1.7c0.8-0.8,1.4-1.9,1.7-3.2c0.5-1.8,0.8-4,0.8-6.3v-47.6H561c1.7,1.9,2.7,4.4,2.7,7.3v32.6
					C563.6,634.6,563.6,634.9,563.6,635.2z M517.4,596.8c-0.3,0.2-0.6,0.5-0.8,0.8c-0.8,0.9-1.4,2-1.8,3.3c-0.6,1.8-0.8,4-0.8,6.5
					v8.7c0,2.9,0.4,6.8,2.4,8.7c0.2,0.2,0.8,0.7,2,1.2c-2.8-2.9-4.2-7-4.2-12.3v-5.2C514.2,603.5,515.3,599.7,517.4,596.8z
					 M532.2,612.5h13.4v-3.6h-13.4V612.5z"/>
			</g>
			<g>
				<path class="st2" d="M632.4,649.8h-50.9c-5,0-9-4-9-9v-15.6c0-3.2,1.7-6.1,4.3-7.6c-3.3-3.9-5-8.9-5-14.8v-4.4
					c0-6.4,2-11.7,5.8-15.8c4-4.2,9.8-6.3,17.4-6.3h50c6.7,0,11.5,4.8,11.5,11.5v12.4c0,2.9-1.4,5.6-3.6,7.2
					c1.7,2.1,2.9,4.7,3.6,7.5c0.5,2.3,0.8,4.9,0.8,7.7v4.1c0,6.8-2,12.4-6,16.5C647.1,647.7,640.9,649.8,632.4,649.8z M638.4,618.5
					c0.2,0.8,0.3,1.7,0.3,2.6v1.2c0,4.2-1.6,6.8-3,8.3c-0.3,0.3-0.7,0.7-1.1,1c2.6-0.2,3.6-0.7,3.7-0.8c0.8-0.9,0.9-2.9,0.9-4v-4.1
					c0-1.8-0.2-3-0.3-3.7c0-0.1-0.1-0.2-0.1-0.3C638.8,618.7,638.6,618.6,638.4,618.5z M626.9,627.8L626.9,627.8L626.9,627.8z
					 M591.8,594.6c-0.9,0.2-1.2,0.4-1.2,0.4c-0.7,0.7-0.8,2.2-0.8,3.3v2.4C589.9,598.1,590.8,596,591.8,594.6z"/>
			</g>
		</g>
		<g class="st1">
			<g>
				<path class="st2" d="M810.9,649.8H748c-3.7,0-7.1-2.3-8.4-5.8l-1.2-3.2l-2,4c-1.5,3.1-4.6,5-8.1,5h-24c-5,0-9-4-9-9V640
					c0-1.5,0.4-2.9,1-4.2l36.8-70.2c1.1-2.2,2.5-3.9,4.2-5.1c2.1-1.5,4.6-2.2,7.7-2.2h25.4c3,0,5.4,0.7,7.5,2
					c1.7,1.1,3.1,2.8,4.4,4.9c0.1,0.1,0.1,0.2,0.2,0.3l36.6,70.3c0.7,1.3,1,2.7,1,4.2v0.8C819.9,645.8,815.8,649.8,810.9,649.8z
					 M781,631.8h15.5l-28.9-55.5h-6.4c2.6,0.7,4.8,2.4,6.1,4.8c0.1,0.1,0.2,0.3,0.2,0.4l11.6,23.2c1,2.1,1.9,3.8,2.6,5.2
					c0.7,1.4,1.4,2.6,1.9,3.6c0.4,0.8,0.8,1.5,1.2,2.1c0.5,0.9,1,1.7,1.5,2.6c1.3,2.4,1.5,5.3,0.4,7.9l-0.3,0.7
					C785.5,629.2,783.4,631,781,631.8z M718.7,631.8h4l24.9-50.2c0.1-0.2,0.2-0.3,0.2-0.5c1.4-2.4,3.5-4.1,6.1-4.8h-6.1L718.7,631.8
					z M751.6,613.8h12c-0.2-0.3-0.3-0.7-0.5-1l-5.5-11L751.6,613.8z"/>
			</g>
			<g>
				<path class="st2" d="M837.6,649.8h-20.8c-5,0-9-4-9-9v-70.5c0-7,5-12,11.9-12h57c6.1,0,11.2,0.8,15.6,2.3
					c4.8,1.7,8.8,4.2,12,7.5c3.1,3.3,5.4,7.3,6.8,11.8c1.2,4.1,1.8,8.6,1.8,13.5v6c0,10.8-2.9,19.3-8.6,25.2
					c-5.8,6-14.8,9.1-26.6,9.1h-31.1v7.2C846.6,645.8,842.6,649.8,837.6,649.8z M825.8,631.8h2.8v-23.2c0-0.3,0-0.6,0.1-1
					c0-0.3-0.1-0.6-0.1-1V587c0-5.9,4.4-10.4,10.3-10.4H874c5.7,0,10,1.3,13.1,4.1c3.4,3,5,7.5,5,13.7v3.6c0,5.5-1.6,9.8-4.7,12.9
					c-2.9,2.9-7,4.4-12.2,4.6h2.4c6.7,0,11.4-1.2,13.7-3.6c2.4-2.5,3.6-6.7,3.6-12.7v-6c0-3.1-0.4-5.9-1.1-8.3
					c-0.6-1.9-1.4-3.4-2.6-4.6c-1.2-1.2-2.8-2.2-4.9-2.9c-2.5-0.9-5.8-1.3-9.7-1.3h-50.9v55.7H825.8z M846.6,597.6h27.5h0.1v-3h-0.1
					h-27.5V597.6z"/>
			</g>
			<g>
				<path class="st2" d="M932,649.8h-20.8c-5,0-9-4-9-9v-73.5c0-5,4-9,9-9H932c5,0,9,4,9,9v73.5C941,645.8,936.9,649.8,932,649.8z
					 M920.1,631.8h2.8v-55.5h-2.8V631.8z"/>
			</g>
		</g>
	</g>
	<g>
		<g class="st1">
			<g>
				<g>
					<path class="st3" d="M52.2,625.7v15H31.4v-70.5c0-2,1-3,2.9-3h60.4c6.9,0,11.8,1.5,14.8,4.6s4.5,7.4,4.5,13v6.5
						c0,3-0.6,5.4-1.8,7.2s-2.6,3.3-4.1,4.3c2.2,1.1,3.9,2.7,5.4,4.7c1.4,2.1,2.1,4.7,2.1,7.8v6.5c0,6.2-1.5,10.9-4.4,14.1
						c-2.9,3.2-8,4.8-15.1,4.8H58.7l-5.8-15L52.2,625.7L52.2,625.7z M54,583.6c-1.1,0-1.7,0.6-1.7,1.7v12.4h34.9
						c2.3,0,3.9-0.4,4.8-1.3c0.9-0.9,1.4-2.4,1.4-4.5v-2.2c0-2.2-0.5-3.8-1.4-4.7s-2.6-1.4-4.8-1.4H54z M52.2,609.7v13.8h36.2
						c1.8,0,3.1-0.4,4-1.3c0.8-0.9,1.3-2.4,1.3-4.5v-2.1c0-2.2-0.4-3.7-1.2-4.5c-0.8-0.9-2.1-1.3-4.1-1.3H52.2V609.7z"/>
				</g>
			</g>
			<g>
				<g>
					<path class="st3" d="M123,576.6V562h18.3v14.6H123z M123,640.8v-55.4h18.3v55.4H123z"/>
				</g>
			</g>
			<g>
				<g>
					<path class="st3" d="M221.8,618.8c0,3.4-0.4,6.4-1.2,9.1c-0.8,2.7-2.1,5-3.9,6.9c-1.8,1.9-4.2,3.4-7.1,4.4
						c-2.9,1-6.4,1.6-10.5,1.6h-26.7c-4.1,0-7.6-0.5-10.5-1.6c-2.9-1-5.2-2.5-7-4.4s-3.1-4.2-3.9-6.9c-0.8-2.7-1.2-5.7-1.2-9.1
						v-11.4c0-3.3,0.4-6.3,1.2-9s2.1-5,3.9-7c1.8-1.9,4.2-3.4,7-4.4c2.9-1,6.3-1.6,10.5-1.6h26.7c4.1,0,7.6,0.5,10.5,1.6
						c2.9,1,5.3,2.5,7.1,4.4s3.1,4.2,3.9,7c0.8,2.7,1.2,5.7,1.2,9V618.8z M195.8,624.5c2.9,0,4.9-0.6,6.1-1.7
						c1.1-1.1,1.7-3.3,1.7-6.5v-7.8c0-3.4-0.6-5.7-1.8-6.9s-3.2-1.8-6-1.8h-19.9c-2.9,0-4.9,0.6-6,1.9c-1.1,1.2-1.7,3.5-1.7,6.8v7.8
						c0,3.2,0.6,5.3,1.7,6.5c1.1,1.1,3.1,1.7,6,1.7H195.8z"/>
				</g>
			</g>
			<g>
				<g>
					<path class="st3" d="M275.8,585.6v55.1H255v-55.1h-30.5l-6.8-17.6v-0.8h97.5c2,0,2.9,1,2.9,3v19.1l-19.3,7.2H298v-9.8
						c0-0.7-0.4-1.1-1.1-1.1L275.8,585.6L275.8,585.6z"/>
				</g>
			</g>
			<g>
				<g>
					<path class="st3" d="M324.7,562H343v23.3h27c4.1,0,7.6,0.5,10.5,1.6c2.9,1,5.2,2.5,7,4.4s3.1,4.2,3.9,6.9s1.2,5.7,1.2,9.1v33.4
						h-18.3v-32.2c0-3.2-0.7-5.5-2-6.8s-3.2-1.9-5.8-1.9h-19.8l-3-8.1H343v49h-18.3V562z"/>
				</g>
			</g>
			<g>
				<g>
					<path class="st3" d="M401.6,576.6V562h18.3v14.6H401.6z M401.6,640.8v-55.4h18.3v55.4H401.6z"/>
				</g>
			</g>
			<g>
				<g>
					<path class="st3" d="M429.3,585.3h45.2c4.1,0,7.6,0.5,10.5,1.6c2.9,1,5.2,2.5,7,4.4s3.1,4.2,3.9,6.9s1.2,5.7,1.2,9.1v33.4
						h-18.3v-32.2c0-3.2-0.6-5.5-1.8-6.8c-1.2-1.3-3.2-1.9-6-1.9h-19.8l-3-8.1h-0.7v49h-18.3L429.3,585.3L429.3,585.3z"/>
				</g>
			</g>
			<g>
				<g>
					<path class="st3" d="M507.4,648.1h40.1c2.6,0,4.5-0.6,5.5-1.8s1.6-3,1.6-5.6v-4.4h-27c-8.3,0-14.1-1.7-17.6-5
						c-3.4-3.3-5.2-8.4-5.2-15.2v-8.7c0-3.4,0.4-6.4,1.2-9.1c0.8-2.7,2.1-5,3.9-6.9s4.2-3.4,7-4.4c2.9-1,6.4-1.6,10.6-1.6h40.3
						c3.4,0,5,1.7,5,5.1V642c0,3.2-0.4,6.2-1.2,8.8c-0.8,2.7-2,4.9-3.8,6.8s-4.1,3.3-7,4.4c-2.9,1-6.5,1.6-10.7,1.6h-42.9v-15.5
						H507.4z M553.9,634.2h0.7v-32.6c0-1.1-0.6-1.7-1.7-1.7h-21.8c-2.8,0-4.8,0.6-6.1,1.9c-1.2,1.2-1.8,3.5-1.8,6.7v5.2
						c0,3,0.6,5.1,1.8,6.2c1.2,1.1,3.2,1.7,6.1,1.7H549L553.9,634.2z"/>
				</g>
			</g>
			<g>
				<g>
					<path class="st3" d="M581.5,625.2h45.3c1.1,0,1.8-0.2,2.2-0.7c0.4-0.4,0.6-1.2,0.6-2.2v-1.2c0-0.7-0.1-1.3-0.4-1.7
						c-0.3-0.4-0.8-0.6-1.6-0.7l-34.4-2.9c-4.2-0.3-7.4-1.6-9.4-3.9c-2-2.3-3-5.4-3-9.2v-4.4c0-4,1.1-7.2,3.3-9.5s5.9-3.5,10.9-3.5
						h50c1.7,0,2.5,0.8,2.5,2.5v12.4l-15.8,5.9H631v-6.4c0-0.5-0.2-0.8-0.7-0.8h-28.9c-1,0-1.7,0.2-2.1,0.6c-0.4,0.4-0.6,1.1-0.6,2
						v1.5c0,0.9,0.2,1.5,0.5,1.8s0.9,0.5,1.7,0.6l35.2,3.4c2.4,0.2,4.3,0.6,5.9,1.3c1.5,0.7,2.8,1.6,3.7,2.7c0.9,1.1,1.6,2.5,2,4.1
						s0.6,3.5,0.6,5.7v4.1c0,4.4-1.2,7.9-3.5,10.3s-6.4,3.6-12.4,3.6h-50.9V625.2L581.5,625.2z"/>
				</g>
			</g>
		</g>
		<g class="st1">
			<g>
				<g>
					<path class="st4" d="M728.2,640.8h-24V640l36.9-70.3c0.5-0.9,0.9-1.6,1.4-1.9c0.5-0.3,1.3-0.5,2.4-0.5h25.4
						c1.1,0,2,0.2,2.5,0.5s1,1,1.6,1.9L811,640v0.8h-62.9l-6.1-16v-2h20.6c2.2,0,4,0,5.6,0s3,0,4.2,0s2.3,0.1,3.2,0.2
						c0.9,0.1,1.9,0.1,2.7,0.2l0.3-0.7c-0.4-0.7-0.8-1.5-1.3-2.2c-0.4-0.7-0.9-1.6-1.5-2.6c-0.5-1-1.2-2.2-1.9-3.6
						c-0.7-1.4-1.7-3.2-2.7-5.4l-11.6-23.2c-0.3-0.5-0.7-0.7-1.4-0.7H757c-0.6,0-1,0.2-1.3,0.7L728.2,640.8z"/>
				</g>
			</g>
			<g>
				<g>
					<path class="st4" d="M838.3,608.6h-0.7v32.2h-20.8v-70.5c0-2,1-3,2.9-3h57c5,0,9.2,0.6,12.7,1.8s6.3,2.9,8.4,5.2
						c2.2,2.3,3.7,5,4.7,8.2s1.5,6.9,1.5,10.9v6c0,8.4-2,14.7-6.1,18.9s-10.8,6.3-20.1,6.3h-33.2L838.3,608.6z M838.9,585.6
						c-0.9,0-1.3,0.5-1.3,1.4v19.6h36.5c3.4,0,5.7-0.7,7.1-2c1.3-1.3,2-3.5,2-6.6v-3.6c0-3.4-0.7-5.8-2-7s-3.7-1.8-7.1-1.8
						L838.9,585.6L838.9,585.6z"/>
				</g>
			</g>
			<g>
				<g>
					<path class="st4" d="M911.1,640.8v-73.5H932v73.5H911.1z"/>
				</g>
			</g>
		</g>
	</g>
	<g>
		<g>
			<g>
				<g>
					<g>
						<g>
							<path class="st2" d="M471,294.9h-76.9c-5.9,0-11.4-3.3-14.2-8.5c-2.8-5.3-2.4-11.6,1-16.5l54.9-79.9c3-4.3,7.9-6.9,13.2-6.9
								h77c5.9,0,11.4,3.3,14.2,8.6s2.4,11.6-1,16.5l-55,79.9C481.2,292.3,476.3,294.9,471,294.9z M424.5,262.9h38.1l33-47.9h-38.1
								L424.5,262.9z"/>
						</g>
					</g>
				</g>
				<g>
					<g>
						<g>
							<path class="st2" d="M525.9,375.1L525.9,375.1c-5.3,0-10.2-2.6-13.2-6.9l-54.9-79.9c-3.8-5.5-3.8-12.7,0-18.1l54.9-79.8
								c3-4.3,7.9-6.9,13.1-6.9l0,0c5.2,0,10.1,2.6,13.1,6.9l55.6,79.8c3.8,5.5,3.8,12.8,0,18.3L539,368.2
								C536,372.5,531.1,375.1,525.9,375.1z M490.4,279.2L526,331l36-51.8l-36-51.7L490.4,279.2z"/>
						</g>
					</g>
				</g>
				<g>
					<g>
						<g>
							<path class="st2" d="M526,374.9h-77c-5.3,0-10.2-2.6-13.2-6.9l-54.9-80c-3.4-4.9-3.7-11.3-1-16.5c2.8-5.3,8.2-8.5,14.2-8.5
								H471c5.3,0,10.2,2.6,13.2,6.9l55,80c3.4,4.9,3.7,11.3,1,16.5C537.4,371.6,531.9,374.9,526,374.9z M457.4,342.9h38.2l-33-48
								h-38.1L457.4,342.9z"/>
						</g>
					</g>
				</g>
			</g>
			<g>
				<g>
					<g>
						<g>
							<path class="st2" d="M471,135.1h-76.9c-5.9,0-11.4-3.3-14.2-8.5c-2.8-5.3-2.4-11.6,1-16.5l54.9-80c3-4.3,7.9-6.9,13.2-6.9h77
								c5.9,0,11.4,3.3,14.2,8.6s2.4,11.6-1,16.5l-55,80C481.2,132.5,476.3,135.1,471,135.1z M424.5,103.1h38.1l33-48h-38.2
								L424.5,103.1z"/>
						</g>
					</g>
				</g>
				<g>
					<g>
						<g>
							<path class="st2" d="M525.9,215.4L525.9,215.4c-5.3,0-10.2-2.6-13.2-7l-54.9-80.1c-3.7-5.5-3.7-12.7,0-18.1l54.9-79.9
								c3-4.3,7.9-6.9,13.1-6.9l0,0c5.2,0,10.1,2.6,13.1,6.9l55.6,79.9c3.8,5.5,3.8,12.8,0,18.3l-55.5,80
								C536.1,212.8,531.1,215.4,525.9,215.4z M490.4,119.3l35.6,51.9l36-51.9l-36-51.8L490.4,119.3z"/>
						</g>
					</g>
				</g>
				<g>
					<g>
						<g>
							<path class="st2" d="M525.8,215H449c-5.3,0-10.2-2.6-13.2-7l-54.7-79.9c-3.4-4.9-3.7-11.3-1-16.5c2.8-5.3,8.2-8.5,14.2-8.5
								H471c5.3,0,10.2,2.6,13.2,7L539,190c3.4,4.9,3.7,11.3,1,16.5C537.2,211.7,531.7,215,525.8,215z M457.4,183h38l-32.9-47.9
								h-37.9L457.4,183z"/>
						</g>
					</g>
				</g>
			</g>
			<g>
				<g>
					<g>
						<g>
							<path class="st2" d="M471,454.8h-76.9c-5.9,0-11.4-3.3-14.2-8.5c-2.8-5.3-2.4-11.6,1-16.5l54.9-79.9c3-4.3,7.9-6.9,13.2-6.9
								h77c5.9,0,11.4,3.3,14.2,8.6c2.8,5.3,2.4,11.6-1,16.5l-55,79.9C481.2,452.2,476.3,454.8,471,454.8z M424.5,422.8h38.1
								l33-47.9h-38.1L424.5,422.8z"/>
						</g>
					</g>
				</g>
				<g>
					<g>
						<g>
							<path class="st2" d="M525.9,535L525.9,535c-5.3,0-10.2-2.6-13.2-7l-54.9-80.1c-3.7-5.5-3.7-12.7,0-18.1l54.9-79.8
								c3-4.3,7.9-6.9,13.1-6.9l0,0c5.2,0,10.1,2.6,13.1,6.9l55.6,79.8c3.8,5.5,3.8,12.8,0,18.3l-55.5,80
								C536.1,532.4,531.1,535,525.9,535z M490.4,438.9l35.6,51.9l36-51.9l-36-51.7L490.4,438.9z"/>
						</g>
					</g>
				</g>
				<g>
					<g>
						<g>
							<path class="st2" d="M525.8,534.7H449c-5.3,0-10.2-2.6-13.2-7l-54.7-79.9c-3.4-4.9-3.7-11.2-1-16.5c2.8-5.3,8.2-8.5,14.2-8.5
								H471c5.3,0,10.2,2.6,13.2,7l54.8,79.9c3.4,4.9,3.7,11.3,1,16.5C537.2,531.4,531.7,534.7,525.8,534.7z M457.4,502.7h38
								l-32.9-47.9h-37.9L457.4,502.7z"/>
						</g>
					</g>
				</g>
			</g>
			<g>
				<g>
					<g>
						<g>
							<path class="st2" d="M603.3,374.9h-77.2c-5.9,0-11.4-3.3-14.2-8.5c-2.8-5.3-2.4-11.6,1-16.5l54.9-80c3-4.3,7.9-6.9,13.2-6.9
								h77.2c5.9,0,11.4,3.3,14.2,8.5c2.8,5.3,2.4,11.6-1,16.5l-54.9,80C613.5,372.3,608.6,374.9,603.3,374.9z M556.5,342.9h38.4
								l32.9-48h-38.4L556.5,342.9z"/>
						</g>
					</g>
				</g>
				<g>
					<g>
						<g>
							<path class="st2" d="M658.2,455.2L658.2,455.2c-5.3,0-10.2-2.6-13.2-7l-54.9-80.1c-3.7-5.5-3.7-12.7,0-18.1l54.9-79.9
								c3-4.3,7.9-6.9,13.2-6.9l0,0c5.3,0,10.2,2.6,13.2,6.9l55.3,79.9c3.8,5.5,3.8,12.7,0,18.2l-55.3,80.1
								C668.4,452.6,663.5,455.2,658.2,455.2z M622.7,359.1l35.5,51.9l35.8-51.9l-35.8-51.7L622.7,359.1z"/>
						</g>
					</g>
				</g>
				<g>
					<g>
						<g>
							<path class="st2" d="M658,454.8h-77c-5.3,0-10.2-2.6-13.2-7l-54.7-79.9c-3.4-4.9-3.7-11.3-1-16.5c2.8-5.3,8.2-8.5,14.2-8.5
								h77c5.3,0,10.2,2.6,13.2,7l54.7,79.9c3.4,4.9,3.7,11.2,1,16.5S663.9,454.8,658,454.8z M589.4,422.8h38.2l-32.8-47.9h-38.2
								L589.4,422.8z"/>
						</g>
					</g>
				</g>
			</g>
			<g>
				<g>
					<g>
						<g>
							<path class="st2" d="M603,215h-77.2c-5.9,0-11.4-3.3-14.2-8.6s-2.4-11.6,1-16.5l55-79.9c3-4.3,7.9-6.9,13.2-6.9h76.9
								c5.9,0,11.4,3.3,14.2,8.5c2.8,5.3,2.4,11.6-1,16.5L616.2,208C613.2,212.4,608.3,215,603,215z M556.2,183h38.3l32.8-47.9
								h-38.1L556.2,183z"/>
						</g>
					</g>
				</g>
				<g>
					<g>
						<g>
							<path class="st2" d="M657.7,295.2L657.7,295.2c-5.3,0-10.2-2.6-13.2-7l-54.7-80.1c-3.7-5.4-3.7-12.6,0-18.1l54.7-79.8
								c3-4.3,7.9-6.9,13.1-7c5.3,0,10.2,2.5,13.2,6.9l55.6,79.8c3.8,5.5,3.8,12.8,0,18.3l-55.6,80.1
								C667.9,292.6,662.9,295.2,657.7,295.2z M622.4,199.1l35.4,51.9l36-51.9l-36-51.7L622.4,199.1z"/>
						</g>
					</g>
				</g>
				<g>
					<g>
						<g>
							<path class="st2" d="M657.5,294.9h-76.7c-5.3,0-10.2-2.6-13.2-7L512.8,208c-3.4-4.9-3.7-11.3-1-16.5
								c2.8-5.3,8.2-8.5,14.2-8.5h77c5.3,0,10.2,2.6,13.2,7l54.5,79.9c3.3,4.9,3.7,11.2,0.9,16.5
								C668.9,291.6,663.4,294.9,657.5,294.9z M589.2,262.9h38L594.5,215h-38.2L589.2,262.9z"/>
						</g>
					</g>
				</g>
			</g>
			<g>
				<g>
					<g>
						<g>
							<path class="st2" d="M340.5,374.9h-77.2c-5.9,0-11.4-3.3-14.2-8.5c-2.8-5.3-2.4-11.6,1-16.5l54.9-80c3-4.3,7.9-6.9,13.2-6.9
								h77c5.9,0,11.4,3.3,14.2,8.5s2.4,11.6-0.9,16.5l-54.7,80C350.7,372.3,345.8,374.9,340.5,374.9z M293.7,342.9h38.4l32.8-48
								h-38.3L293.7,342.9z"/>
						</g>
					</g>
				</g>
				<g>
					<g>
						<g>
							<path class="st2" d="M395.1,455.2L395.1,455.2c-5.3,0-10.3-2.6-13.2-7l-54.6-80.1c-3.7-5.4-3.7-12.6,0-18l54.6-79.9
								c3-4.3,7.9-7,13.1-7c0,0,0,0,0.1,0c5.2,0,10.1,2.6,13.1,6.9l55.6,79.9c3.8,5.5,3.8,12.8,0,18.3l-55.6,80.1
								C405.3,452.6,400.3,455.2,395.1,455.2z M359.9,359.1l35.3,51.9l36-51.9l-36-51.7L359.9,359.1z"/>
						</g>
					</g>
				</g>
				<g>
					<g>
						<g>
							<path class="st2" d="M395,454.8h-76.7c-5.3,0-10.2-2.6-13.2-7l-54.8-79.9c-3.4-4.9-3.7-11.3-1-16.5c2.8-5.3,8.2-8.5,14.2-8.5
								h77c5.3,0,10.2,2.6,13.2,7l54.5,79.9c3.3,4.9,3.7,11.2,0.9,16.5C406.4,451.5,400.9,454.8,395,454.8z M326.7,422.8h38
								L332,374.9h-38.2L326.7,422.8z"/>
						</g>
					</g>
				</g>
			</g>
			<g>
				<g>
					<g>
						<g>
							<path class="st2" d="M340,215h-77c-5.9,0-11.4-3.3-14.2-8.6s-2.4-11.6,1-16.5l55-79.9c3-4.3,7.9-6.9,13.2-6.9h77
								c5.9,0,11.4,3.3,14.2,8.6c2.8,5.3,2.4,11.6-1,16.5l-55,79.9C350.2,212.4,345.3,215,340,215z M293.4,183h38.2l33-47.9h-38.2
								L293.4,183z"/>
						</g>
					</g>
				</g>
				<g>
					<g>
						<g>
							<path class="st2" d="M394.9,295.2L394.9,295.2c-5.3,0-10.2-2.6-13.2-7l-54.9-80.1c-3.7-5.5-3.7-12.7,0-18.1l54.9-79.8
								c3-4.3,7.9-6.9,13.1-6.9l0,0c5.2,0,10.1,2.6,13.1,6.9l55.6,79.8c3.8,5.5,3.8,12.8,0,18.3l-55.5,80
								C405.1,292.6,400.1,295.2,394.9,295.2z M359.4,199.1L395,251l36-51.9l-36-51.7L359.4,199.1z"/>
						</g>
					</g>
				</g>
				<g>
					<g>
						<g>
							<path class="st2" d="M394.7,294.9H318c-5.3,0-10.2-2.6-13.2-7L250.1,208c-3.4-4.9-3.7-11.3-1-16.5c2.8-5.3,8.2-8.5,14.2-8.5
								H340c5.3,0,10.2,2.6,13.2,7l54.7,79.9c3.4,4.9,3.7,11.3,1,16.5C406.1,291.6,400.6,294.9,394.7,294.9z M326.4,262.9h37.9
								L331.6,215h-37.9L326.4,262.9z"/>
						</g>
					</g>
				</g>
			</g>
		</g>
		<g>
			<g>
				<g>
					<g>
						<g>
							<polygon class="st5" points="526,199 471,278.9 394.1,278.9 449,199 							"/>
						</g>
					</g>
				</g>
				<g>
					<g>
						<g>
							<polygon class="st6" points="525.9,199.4 581.5,279.2 525.9,359.1 471,279.2 							"/>
						</g>
					</g>
				</g>
				<g>
					<g>
						<g>
							<polygon class="st7" points="471,278.9 526,358.9 449,358.9 394.1,278.9 							"/>
						</g>
					</g>
				</g>
			</g>
			<g>
				<g>
					<g>
						<g>
							<polygon class="st5" points="526,39.1 471,119.1 394.1,119.1 449,39.1 							"/>
						</g>
					</g>
				</g>
				<g>
					<g>
						<g>
							<polygon class="st6" points="525.9,39.4 581.5,119.3 525.9,199.4 471,119.3 							"/>
						</g>
					</g>
				</g>
				<g>
					<g>
						<g>
							<polygon class="st7" points="471,119.1 525.8,199 449,199 394.3,119.1 							"/>
						</g>
					</g>
				</g>
			</g>
			<g>
				<g>
					<g>
						<g>
							<polygon class="st5" points="526,358.9 471,438.8 394.1,438.8 449,358.9 							"/>
						</g>
					</g>
				</g>
				<g>
					<g>
						<g>
							<polygon class="st6" points="525.9,359.1 581.5,438.9 525.9,519 471,438.9 							"/>
						</g>
					</g>
				</g>
				<g>
					<g>
						<g>
							<polygon class="st7" points="471,438.8 525.8,518.7 449,518.7 394.3,438.8 							"/>
						</g>
					</g>
				</g>
			</g>
			<g>
				<g>
					<g>
						<g>
							<polygon class="st5" points="658.2,278.9 603.3,358.9 526.1,358.9 581,278.9 							"/>
						</g>
					</g>
				</g>
				<g>
					<g>
						<g>
							<polygon class="st6" points="658.2,279.2 713.5,359.1 658.2,439.2 603.3,359.1 							"/>
						</g>
					</g>
				</g>
				<g>
					<g>
						<g>
							<polygon class="st7" points="603.3,358.9 658,438.8 581,438.8 526.3,358.9 							"/>
						</g>
					</g>
				</g>
			</g>
			<g>
				<g>
					<g>
						<g>
							<polygon class="st5" points="657.7,119.1 603,199 525.8,199 580.8,119.1 							"/>
						</g>
					</g>
				</g>
				<g>
					<g>
						<g>
							<polygon class="st6" points="657.7,119.3 713.3,199.1 657.7,279.2 603,199.1 							"/>
						</g>
					</g>
				</g>
				<g>
					<g>
						<g>
							<polygon class="st7" points="603,199 657.5,278.9 580.8,278.9 526,199 							"/>
						</g>
					</g>
				</g>
			</g>
			<g>
				<g>
					<g>
						<g>
							<polygon class="st5" points="395.2,278.9 340.5,358.9 263.3,358.9 318.2,278.9 							"/>
						</g>
					</g>
				</g>
				<g>
					<g>
						<g>
							<polygon class="st6" points="395.1,279.2 450.7,359.1 395.1,439.2 340.5,359.1 							"/>
						</g>
					</g>
				</g>
				<g>
					<g>
						<g>
							<polygon class="st7" points="340.5,358.9 395,438.8 318.3,438.8 263.5,358.9 							"/>
						</g>
					</g>
				</g>
			</g>
			<g>
				<g>
					<g>
						<g>
							<polygon class="st5" points="395,119.1 340,199 263,199 318,119.1 							"/>
						</g>
					</g>
				</g>
				<g>
					<g>
						<g>
							<polygon class="st6" points="394.9,119.3 450.5,199.1 394.9,279.2 340,199.1 							"/>
						</g>
					</g>
				</g>
				<g>
					<g>
						<g>
							<polygon class="st7" points="340,199 394.7,278.9 318,278.9 263.3,199 							"/>
						</g>
					</g>
				</g>
			</g>
		</g>
	</g>
</g>
</svg>
