<?xml version="1.0" encoding="utf-8"?>
<!-- Generator: Adobe Illustrator 22.1.0, SVG Export Plug-In . SVG Version: 6.00 Build 0)  -->
<svg version="1.1" id="Layer_1" xmlns="http://www.w3.org/2000/svg" xmlns:xlink="http://www.w3.org/1999/xlink" x="0px" y="0px"
	 viewBox="0 0 50 50" style="enable-background:new 0 0 50 50;" xml:space="preserve">
<style type="text/css">
	.st0{fill:#EFEFEF;}
</style>
<path class="st0" d="M46.6,3H4.7C4.4,3,4.2,3.3,4.2,3.6v29.8c0,0.3,0.3,0.6,0.6,0.6h17.3c0.3,0,0.6,0.3,0.6,0.6v5.8
	c0,0.3-0.3,0.6-0.6,0.6H9.4c-0.2,0-0.3,0.1-0.4,0.2L5.8,45c-0.3,0.4,0,1,0.4,1H44c0.4,0,0.7-0.5,0.5-0.9l-2.2-3.8
	C42.2,41.1,42,41,41.8,41H29.2c-0.3,0-0.6-0.3-0.6-0.6v-5.8c0-0.3,0.3-0.6,0.6-0.6h17.3c0.3,0,0.6-0.3,0.6-0.6V3.6
	C47.2,3.3,46.9,3,46.6,3z M44,29H7V6h37V29z"/>
</svg>
