<?xml version="1.0" encoding="utf-8"?>
<!-- Generator: Adobe Illustrator 22.1.0, SVG Export Plug-In . SVG Version: 6.00 Build 0)  -->
<svg version="1.1" id="Layer_1" xmlns="http://www.w3.org/2000/svg" xmlns:xlink="http://www.w3.org/1999/xlink" x="0px" y="0px"
	 viewBox="0 0 50 50" style="enable-background:new 0 0 50 50;" xml:space="preserve">
<style type="text/css">
	.st0{fill:#EFEFEF;}
</style>
<g id="trQxad.tif">
	<g>
		<path class="st0" d="M19.8,46.6c-3.2-0.1-6.3-0.5-9.2-2c-1.2-0.6-2.3-1.4-3.2-2.4c-0.2-0.3-0.3-0.5-0.1-0.8
			c1.2-2.3,1.9-4.8,2.7-7.3c0.4-1.1,0.7-2.2,0.6-3.4c-0.2-2.3-0.6-4.6-1.2-6.9c-0.3-1-0.6-2-0.8-3c-0.1-0.9-0.1-1.8,0.3-2.7
			c0.7-2,1.4-3.9,2.1-5.9c0.4-1,1-1.7,2.1-1.9c1.7-0.3,3.3,1.2,2.9,2.9c-0.4,1.8-0.9,3.6-1.4,5.4c-0.1,0.3-0.1,0.5,0,0.7
			c1.7,6.7,3.3,13.5,4.9,20.2c0.2,0.7,0.3,1.3,0.5,2c0.2,0.5,0.4,1,0.9,1.4c0.3,0.2,0.2,0.6,0.3,0.9c0.1,0.8,0.1,1.6,0.1,2.5
			c0,0.4-0.1,0.5-0.5,0.5C20.5,46.6,20.2,46.6,19.8,46.6z"/>
		<path class="st0" d="M17.2,15.3c0.2,0.6,0.3,1.3,0.5,1.9c0.9,3.7,1.8,7.3,2.7,11c0.6,2.5,1.2,4.9,1.8,7.4c0.1,0.4,0.2,0.5,0.6,0.4
			c4.8-1.2,9.6-2.4,14.5-3.6c0.3-0.1,0.4-0.2,0.3-0.5C35.8,24.5,34,17.3,32.2,10c-0.1-0.6-0.3-1.1-0.4-1.7c-0.1-0.5-0.3-0.5-0.7-0.4
			c-2.6,0.7-5.2,1.3-7.8,1.9c-1.8,0.4-3.6,0.9-5.4,1.3c-0.3,0.1-0.5,0-0.6-0.3c-0.5-1.2-1.6-1.8-2.8-2.1c-0.2,0-0.4,0-0.4-0.2
			c0-0.2,0.2-0.3,0.3-0.4c0.3-0.3,0.7-0.4,1.1-0.5c4.9-1.2,9.9-2.5,14.8-3.7c0.3-0.1,0.7-0.2,1-0.1C32.3,4,32.8,4.5,33,5.5
			c0.4,1.7,0.8,3.3,1.2,5c2,8.2,4.1,16.4,6.1,24.6c0.1,0.5,0.3,0.9,0.2,1.4c-0.1,1-0.7,1.7-1.7,1.9c-3,0.7-5.9,1.5-8.9,2.2
			c-2,0.5-3.9,1-5.9,1.5c-1.2,0.3-2.3-0.3-2.6-1.6c-1.1-4.3-2.1-8.5-3.2-12.8c-0.7-2.9-1.4-5.7-2.1-8.6c-0.1-0.3-0.1-0.6,0-0.9
			c0.3-1,0.7-2,1-3C17.1,15.3,17.2,15.3,17.2,15.3z M32.4,37c0-1-0.7-1.7-1.7-1.7c-0.9,0-1.7,0.7-1.7,1.6c0,1,0.7,1.7,1.6,1.7
			C31.6,38.7,32.4,38,32.4,37z M22.4,8.4c0.3-0.1,0.7-0.2,1.1-0.3c0.4-0.1,0.8-0.2,1.2-0.3c0.3-0.1,0.4-0.3,0.3-0.6
			C25,7,24.8,6.9,24.6,7c-0.8,0.2-1.6,0.4-2.4,0.6c-0.2,0.1-0.4,0.2-0.4,0.5C21.8,8.4,22,8.4,22.4,8.4z"/>
		<path class="st0" d="M38.8,15.3c0.7,0,1.3,0,2,0.1c1.3,0.1,2.3,1.3,2.3,2.6c0,1.3-1.1,2.5-2.5,2.5c-0.8,0-1.6,0-2.4,0
			c-0.2,0-0.2-0.2-0.3-0.3c-0.4-1.4-0.7-2.9-1.1-4.3c-0.1-0.3,0.1-0.4,0.3-0.4C37.7,15.3,38.3,15.3,38.8,15.3z"/>
		<path class="st0" d="M39.4,21.3c0.3,0,0.6,0,0.9-0.1c0.3,0,0.5,0,0.7,0.1c1.3,0.5,2.3,1.4,2.8,2.7c0.4,1-0.1,2.1-0.9,2.7
			c-0.9,0.7-2,0.7-2.9,0.1c-0.4-0.2-0.6-0.5-0.7-0.9c-0.3-1.4-0.7-2.7-1-4.1c-0.1-0.5-0.1-0.5,0.4-0.5C39,21.3,39.2,21.3,39.4,21.3
			C39.4,21.3,39.4,21.3,39.4,21.3z"/>
		<path class="st0" d="M36.6,9.4c0.9,0,1.8,0.1,2.5,0.8C39.8,11,40,12,39.6,13c-0.4,0.9-1.3,1.5-2.3,1.5c-0.7,0-0.7,0-0.9-0.7
			c-0.3-1.2-0.6-2.5-0.9-3.7c-0.2-0.6-0.1-0.7,0.5-0.7C36.2,9.4,36.4,9.4,36.6,9.4z"/>
		<path class="st0" d="M42.2,30.9c0,0.6-0.3,1.2-0.8,1.6c-0.2,0.2-0.4,0.3-0.5-0.1c-0.4-1.5-0.7-3-1.1-4.5c-0.1-0.4,0.1-0.4,0.4-0.3
			c0.5,0.2,0.8,0.4,1.1,0.8C41.8,28.9,42.2,30.2,42.2,30.9z"/>
	</g>
</g>
</svg>
