<?xml version="1.0" encoding="utf-8"?>
<!-- Generator: Adobe Illustrator 22.1.0, SVG Export Plug-In . SVG Version: 6.00 Build 0)  -->
<svg version="1.1" id="Layer_1" xmlns="http://www.w3.org/2000/svg" xmlns:xlink="http://www.w3.org/1999/xlink" x="0px" y="0px"
	 viewBox="0 0 964 745" style="enable-background:new 0 0 964 745;" xml:space="preserve">
<style type="text/css">
	.st0{fill:none;}
	.st1{enable-background:new    ;}
	.st2{fill:none;stroke:#5B5B5B;stroke-width:10;stroke-linejoin:round;}
	.st3{fill:#FFFFFF;}
	.st4{fill:#669BE8;}
	.st5{fill:url(#SVGID_1_);}
	.st6{fill:#2A7FE2;}
	.st7{fill:url(#SVGID_2_);}
	.st8{fill:#3366CC;}
	.st9{fill:#B3B3B3;}
	.st10{fill:#E6E6E6;}
	.st11{fill:#808080;}
	.st12{fill:url(#SVGID_3_);}
	.st13{fill:url(#SVGID_4_);}
	.st14{fill:url(#SVGID_5_);}
	.st15{fill:url(#SVGID_6_);}
</style>
<g>
	<g>
		<rect x="59.8" y="542.1" class="st0" width="920.4" height="120.2"/>
		<g>
			<g class="st1">
				<path class="st2" d="M176.4,629.5v-61.3c0-1.2-0.6-1.8-1.7-1.8h-1.2c-1,0-1.6,0.5-2,1.5L149.2,627c-0.4,1-0.9,1.7-1.6,2.1
					c-0.7,0.3-1.6,0.5-2.8,0.5h-26.6c-1.3,0-2.2-0.2-2.9-0.5c-0.6-0.3-1.1-1-1.5-2.1l-22.2-59.1c-0.4-1-1.1-1.5-2.1-1.5h-1.1
					c-1.2,0-1.8,0.6-1.8,1.8v61.3H64.9v-78.3c0-2.2,1-3.4,3.1-3.4h37c2.4,0,4,1,4.7,3l20.1,58.3c0.1,0.4,0.4,0.7,1.1,0.7h2
					c0.4,0,0.7-0.2,0.9-0.7l20.2-58.3c0.4-1,0.9-1.7,1.6-2.2c0.7-0.5,1.7-0.8,3-0.8H195c2.1,0,3.1,1.1,3.1,3.4v78.3H176.4z"/>
				<path class="st2" d="M261.3,622.2h0.8V568h20.4v62.8c0,3.6-0.4,6.9-1.3,9.8c-0.9,3-2.3,5.5-4.2,7.6c-1.9,2.1-4.5,3.7-7.7,4.9
					s-7.2,1.7-11.9,1.7h-46.8v-17.2h43.6c2.9,0,5-0.7,6.1-2c1.2-1.3,1.7-3.4,1.7-6.2v-4.9h-29c-9.2,0-15.7-1.9-19.5-5.6
					c-3.8-3.7-5.7-9.3-5.7-16.9v-34h20.4v31.4c0,3.4,0.6,5.7,1.9,6.9c1.3,1.2,3.5,1.9,6.7,1.9h19L261.3,622.2z"/>
			</g>
			<g class="st1">
				<path class="st2" d="M367.2,594.5c0-1.2-0.1-2.4-0.2-3.8c-0.1-1.3-0.2-2.4-0.4-3.4v-1h22.9v40c0,2.1-0.9,3.1-2.8,3.1h-61.5
					c-6.1,0-11.2-0.8-15.5-2.3s-7.7-3.7-10.3-6.5c-2.6-2.8-4.5-6.2-5.7-10.2s-1.8-8.5-1.8-13.4v-16.8c0-4.9,0.6-9.4,1.8-13.4
					c1.2-4,3.1-7.4,5.7-10.2s6.1-5,10.3-6.5c4.3-1.5,9.4-2.3,15.5-2.3h61.1c2.2,0,3.3,1.1,3.3,3.4v17.6l-21.4,7.8h-0.9v-7.8
					c0-0.7-0.3-1.1-1-1.1h-39c-2.2,0-4.1,0.2-5.7,0.6c-1.5,0.4-2.8,1.1-3.8,2.1s-1.7,2.4-2.1,4c-0.4,1.7-0.7,3.8-0.7,6.2V595
					c0,4.9,0.9,8.4,2.8,10.3c1.9,1.9,5,2.9,9.4,2.9H366c0.8,0,1.2-0.4,1.2-1.3V594.5z"/>
				<path class="st2" d="M419.9,594.4h-0.8v9.5c0,3.5,0.6,5.9,1.8,7.2c1.2,1.3,3.4,2,6.7,2h43.8v16.4h-47.7c-4.6,0-8.4-0.6-11.6-1.7
					c-3.2-1.2-5.8-2.8-7.8-4.9c-2-2.1-3.5-4.7-4.4-7.7s-1.3-6.4-1.3-10.1v-12.7c0-3.7,0.4-7.1,1.3-10.1s2.4-5.6,4.4-7.7
					s4.6-3.8,7.8-4.9c3.2-1.2,7-1.7,11.6-1.7h35.5c4.7,0,8.1,1.2,10.1,3.6c2,2.4,3,6.2,3,11.4v5.9c0,4.6-1,8.2-3,10.9s-5.4,4-10.1,4
					h-36L419.9,594.4z M419.2,591.4h31c2.3,0,3.5-1.2,3.5-3.6v-2.2c0-1.3-0.3-2.2-0.8-2.7c-0.6-0.5-1.4-0.8-2.6-0.8h-22.4
					c-3.1,0-5.3,0.7-6.6,2c-1.3,1.3-1.9,3.6-1.9,7v0.3H419.2z"/>
				<path class="st2" d="M481.2,568h50.2c4.6,0,8.4,0.6,11.7,1.7c3.2,1.2,5.8,2.8,7.8,4.9c2,2.1,3.4,4.7,4.3,7.7
					c0.9,3,1.3,6.4,1.3,10.1v37.1h-20.3v-35.8c0-3.6-0.7-6.1-2-7.5s-3.6-2.1-6.6-2.1h-22l-3.4-9h-0.8v54.4h-20.3L481.2,568
					L481.2,568z"/>
				<path class="st2" d="M586.7,594.4h-0.8v9.5c0,3.5,0.6,5.9,1.8,7.2s3.4,2,6.7,2h43.8v16.4h-47.7c-4.6,0-8.4-0.6-11.6-1.7
					c-3.2-1.2-5.8-2.8-7.8-4.9c-2-2.1-3.5-4.7-4.4-7.7s-1.3-6.4-1.3-10.1v-12.7c0-3.7,0.4-7.1,1.3-10.1c0.9-3,2.4-5.6,4.4-7.7
					s4.6-3.8,7.8-4.9c3.2-1.2,7-1.7,11.6-1.7H626c4.7,0,8.1,1.2,10.1,3.6c2,2.4,3,6.2,3,11.4v5.9c0,4.6-1,8.2-3,10.9s-5.4,4-10.1,4
					h-36L586.7,594.4z M585.9,591.4h31c2.3,0,3.5-1.2,3.5-3.6v-2.2c0-1.3-0.3-2.2-0.8-2.7c-0.6-0.5-1.4-0.8-2.6-0.8h-22.4
					c-3.1,0-5.3,0.7-6.6,2s-1.9,3.6-1.9,7v0.3H585.9z"/>
			</g>
			<g class="st1">
				<path class="st2" d="M647.9,629.5v-18.6h20.3v18.6H647.9z"/>
				<path class="st2" d="M678.6,558.3V542h20.3v16.3H678.6z M678.6,629.5V568h20.3v61.6L678.6,629.5L678.6,629.5z"/>
				<path class="st2" d="M709.4,568h50.2c4.6,0,8.4,0.6,11.7,1.7c3.2,1.2,5.8,2.8,7.8,4.9c2,2.1,3.4,4.7,4.3,7.7
					c0.9,3,1.3,6.4,1.3,10.1v37.1h-20.3v-35.8c0-3.6-0.7-6.1-2-7.5s-3.6-2.1-6.6-2.1h-22l-3.4-9h-0.8v54.4h-20.3L709.4,568
					L709.4,568z"/>
				<path class="st2" d="M838.4,583.4h-17.9v46.1h-20.3v-46.1h-8.3l-5.4-14.6V568h13.7v-7.4c0-3.7,0.4-6.7,1.1-9
					c0.7-2.4,2-4.2,3.8-5.7c1.8-1.4,4.1-2.4,7-3s6.4-0.8,10.7-0.8h9.1l5.5,13.8v1h-11.9c-1.9,0-3.3,0.4-3.9,1.3
					c-0.7,0.9-1,2.3-1,4.3v5.5h17.9L838.4,583.4L838.4,583.4z"/>
				<path class="st2" d="M922.9,605.1c0,3.7-0.4,7.1-1.3,10.1c-0.9,3-2.4,5.6-4.4,7.7c-2,2.1-4.6,3.8-7.9,4.9
					c-3.2,1.2-7.1,1.7-11.7,1.7H868c-4.6,0-8.4-0.6-11.6-1.7c-3.2-1.2-5.8-2.8-7.8-4.9c-2-2.1-3.5-4.7-4.4-7.7s-1.3-6.4-1.3-10.1
					v-12.7c0-3.7,0.4-7,1.3-10c0.9-3,2.4-5.6,4.4-7.7s4.6-3.8,7.8-4.9c3.2-1.2,7-1.7,11.6-1.7h29.6c4.6,0,8.4,0.6,11.7,1.7
					c3.2,1.2,5.8,2.8,7.9,4.9c2,2.1,3.5,4.7,4.4,7.7s1.3,6.4,1.3,10V605.1z M893.9,611.5c3.2,0,5.5-0.6,6.7-1.9
					c1.3-1.3,1.9-3.7,1.9-7.2v-8.6c0-3.7-0.7-6.3-2-7.6s-3.5-2-6.7-2h-22.1c-3.2,0-5.4,0.7-6.7,2.1c-1.2,1.4-1.9,3.9-1.9,7.6v8.6
					c0,3.5,0.6,5.9,1.9,7.2c1.2,1.3,3.5,1.9,6.7,1.9L893.9,611.5L893.9,611.5z"/>
			</g>
		</g>
		<g>
			<g class="st1">
				<path class="st3" d="M176.4,629.5v-61.3c0-1.2-0.6-1.8-1.7-1.8h-1.2c-1,0-1.6,0.5-2,1.5L149.2,627c-0.4,1-0.9,1.7-1.6,2.1
					c-0.7,0.3-1.6,0.5-2.8,0.5h-26.6c-1.3,0-2.2-0.2-2.9-0.5c-0.6-0.3-1.1-1-1.5-2.1l-22.2-59.1c-0.4-1-1.1-1.5-2.1-1.5h-1.1
					c-1.2,0-1.8,0.6-1.8,1.8v61.3H64.9v-78.3c0-2.2,1-3.4,3.1-3.4h37c2.4,0,4,1,4.7,3l20.1,58.3c0.1,0.4,0.4,0.7,1.1,0.7h2
					c0.4,0,0.7-0.2,0.9-0.7l20.2-58.3c0.4-1,0.9-1.7,1.6-2.2c0.7-0.5,1.7-0.8,3-0.8H195c2.1,0,3.1,1.1,3.1,3.4v78.3H176.4z"/>
				<path class="st3" d="M261.3,622.2h0.8V568h20.4v62.8c0,3.6-0.4,6.9-1.3,9.8c-0.9,3-2.3,5.5-4.2,7.6c-1.9,2.1-4.5,3.7-7.7,4.9
					s-7.2,1.7-11.9,1.7h-46.8v-17.2h43.6c2.9,0,5-0.7,6.1-2c1.2-1.3,1.7-3.4,1.7-6.2v-4.9h-29c-9.2,0-15.7-1.9-19.5-5.6
					c-3.8-3.7-5.7-9.3-5.7-16.9v-34h20.4v31.4c0,3.4,0.6,5.7,1.9,6.9c1.3,1.2,3.5,1.9,6.7,1.9h19L261.3,622.2z"/>
			</g>
			<g class="st1">
				<path class="st4" d="M367.2,594.5c0-1.2-0.1-2.4-0.2-3.8c-0.1-1.3-0.2-2.4-0.4-3.4v-1h22.9v40c0,2.1-0.9,3.1-2.8,3.1h-61.5
					c-6.1,0-11.2-0.8-15.5-2.3s-7.7-3.7-10.3-6.5c-2.6-2.8-4.5-6.2-5.7-10.2s-1.8-8.5-1.8-13.4v-16.8c0-4.9,0.6-9.4,1.8-13.4
					c1.2-4,3.1-7.4,5.7-10.2s6.1-5,10.3-6.5c4.3-1.5,9.4-2.3,15.5-2.3h61.1c2.2,0,3.3,1.1,3.3,3.4v17.6l-21.4,7.8h-0.9v-7.8
					c0-0.7-0.3-1.1-1-1.1h-39c-2.2,0-4.1,0.2-5.7,0.6c-1.5,0.4-2.8,1.1-3.8,2.1s-1.7,2.4-2.1,4c-0.4,1.7-0.7,3.8-0.7,6.2V595
					c0,4.9,0.9,8.4,2.8,10.3c1.9,1.9,5,2.9,9.4,2.9H366c0.8,0,1.2-0.4,1.2-1.3V594.5z"/>
				<path class="st4" d="M419.9,594.4h-0.8v9.5c0,3.5,0.6,5.9,1.8,7.2c1.2,1.3,3.4,2,6.7,2h43.8v16.4h-47.7c-4.6,0-8.4-0.6-11.6-1.7
					c-3.2-1.2-5.8-2.8-7.8-4.9c-2-2.1-3.5-4.7-4.4-7.7s-1.3-6.4-1.3-10.1v-12.7c0-3.7,0.4-7.1,1.3-10.1s2.4-5.6,4.4-7.7
					s4.6-3.8,7.8-4.9c3.2-1.2,7-1.7,11.6-1.7h35.5c4.7,0,8.1,1.2,10.1,3.6c2,2.4,3,6.2,3,11.4v5.9c0,4.6-1,8.2-3,10.9s-5.4,4-10.1,4
					h-36L419.9,594.4z M419.2,591.4h31c2.3,0,3.5-1.2,3.5-3.6v-2.2c0-1.3-0.3-2.2-0.8-2.7c-0.6-0.5-1.4-0.8-2.6-0.8h-22.4
					c-3.1,0-5.3,0.7-6.6,2c-1.3,1.3-1.9,3.6-1.9,7v0.3H419.2z"/>
				<path class="st4" d="M481.2,568h50.2c4.6,0,8.4,0.6,11.7,1.7c3.2,1.2,5.8,2.8,7.8,4.9c2,2.1,3.4,4.7,4.3,7.7
					c0.9,3,1.3,6.4,1.3,10.1v37.1h-20.3v-35.8c0-3.6-0.7-6.1-2-7.5s-3.6-2.1-6.6-2.1h-22l-3.4-9h-0.8v54.4h-20.3L481.2,568
					L481.2,568z"/>
				<path class="st4" d="M586.7,594.4h-0.8v9.5c0,3.5,0.6,5.9,1.8,7.2s3.4,2,6.7,2h43.8v16.4h-47.7c-4.6,0-8.4-0.6-11.6-1.7
					c-3.2-1.2-5.8-2.8-7.8-4.9c-2-2.1-3.5-4.7-4.4-7.7s-1.3-6.4-1.3-10.1v-12.7c0-3.7,0.4-7.1,1.3-10.1c0.9-3,2.4-5.6,4.4-7.7
					s4.6-3.8,7.8-4.9c3.2-1.2,7-1.7,11.6-1.7H626c4.7,0,8.1,1.2,10.1,3.6c2,2.4,3,6.2,3,11.4v5.9c0,4.6-1,8.2-3,10.9s-5.4,4-10.1,4
					h-36L586.7,594.4z M585.9,591.4h31c2.3,0,3.5-1.2,3.5-3.6v-2.2c0-1.3-0.3-2.2-0.8-2.7c-0.6-0.5-1.4-0.8-2.6-0.8h-22.4
					c-3.1,0-5.3,0.7-6.6,2s-1.9,3.6-1.9,7v0.3H585.9z"/>
			</g>
			<g class="st1">
				<path class="st3" d="M647.9,629.5v-18.6h20.3v18.6H647.9z"/>
				<path class="st3" d="M678.6,558.3V542h20.3v16.3H678.6z M678.6,629.5V568h20.3v61.6L678.6,629.5L678.6,629.5z"/>
				<path class="st3" d="M709.4,568h50.2c4.6,0,8.4,0.6,11.7,1.7c3.2,1.2,5.8,2.8,7.8,4.9c2,2.1,3.4,4.7,4.3,7.7
					c0.9,3,1.3,6.4,1.3,10.1v37.1h-20.3v-35.8c0-3.6-0.7-6.1-2-7.5s-3.6-2.1-6.6-2.1h-22l-3.4-9h-0.8v54.4h-20.3L709.4,568
					L709.4,568z"/>
				<path class="st3" d="M838.4,583.4h-17.9v46.1h-20.3v-46.1h-8.3l-5.4-14.6V568h13.7v-7.4c0-3.7,0.4-6.7,1.1-9
					c0.7-2.4,2-4.2,3.8-5.7c1.8-1.4,4.1-2.4,7-3s6.4-0.8,10.7-0.8h9.1l5.5,13.8v1h-11.9c-1.9,0-3.3,0.4-3.9,1.3
					c-0.7,0.9-1,2.3-1,4.3v5.5h17.9L838.4,583.4L838.4,583.4z"/>
				<path class="st3" d="M922.9,605.1c0,3.7-0.4,7.1-1.3,10.1c-0.9,3-2.4,5.6-4.4,7.7c-2,2.1-4.6,3.8-7.9,4.9
					c-3.2,1.2-7.1,1.7-11.7,1.7H868c-4.6,0-8.4-0.6-11.6-1.7c-3.2-1.2-5.8-2.8-7.8-4.9c-2-2.1-3.5-4.7-4.4-7.7s-1.3-6.4-1.3-10.1
					v-12.7c0-3.7,0.4-7,1.3-10c0.9-3,2.4-5.6,4.4-7.7s4.6-3.8,7.8-4.9c3.2-1.2,7-1.7,11.6-1.7h29.6c4.6,0,8.4,0.6,11.7,1.7
					c3.2,1.2,5.8,2.8,7.9,4.9c2,2.1,3.5,4.7,4.4,7.7s1.3,6.4,1.3,10V605.1z M893.9,611.5c3.2,0,5.5-0.6,6.7-1.9
					c1.3-1.3,1.9-3.7,1.9-7.2v-8.6c0-3.7-0.7-6.3-2-7.6s-3.5-2-6.7-2h-22.1c-3.2,0-5.4,0.7-6.7,2.1c-1.2,1.4-1.9,3.9-1.9,7.6v8.6
					c0,3.5,0.6,5.9,1.9,7.2c1.2,1.3,3.5,1.9,6.7,1.9L893.9,611.5L893.9,611.5z"/>
			</g>
		</g>
	</g>
	<g>
		<g>
			<g>
				<g>
					<g>
						<polygon class="st2" points="651.6,125.7 598.5,203 524.1,203 576.9,125.7 						"/>
					</g>
					<g>
						<polygon class="st2" points="651.6,125.7 598.5,203 524.1,203 576.9,125.7 						"/>
					</g>
				</g>
				<g>
					<g>
						<polygon class="st2" points="651.6,125.7 705.2,203 651.6,280.5 598.5,203 						"/>
					</g>
					<g>
						<polygon class="st2" points="651.6,125.7 705.2,203 651.6,280.5 598.5,203 						"/>
					</g>
				</g>
				<g>
					<polygon class="st2" points="598.5,203 651.6,280.5 576.9,280.5 524.1,203 					"/>
				</g>
			</g>
			<g>
				<g>
					<polygon class="st2" points="396.8,278.3 343.9,355.6 269.2,355.6 322.4,278.3 					"/>
				</g>
				<g>
					<polygon class="st2" points="396.8,278.3 450.6,355.6 396.8,433.1 343.9,355.6 					"/>
				</g>
				<g>
					<polygon class="st2" points="343.9,355.6 396.8,433.1 322.4,433.1 269.2,355.6 					"/>
				</g>
			</g>
			<g>
				<g>
					<polygon class="st2" points="524.1,356.8 470.9,434.1 396.5,434.1 449.4,356.8 					"/>
				</g>
				<g>
					<polygon class="st2" points="524.1,356.8 577.6,434.1 524.1,511.6 470.9,434.1 					"/>
				</g>
				<g>
					<polygon class="st2" points="470.9,434.1 524.1,511.6 449.4,511.6 396.5,434.1 					"/>
				</g>
			</g>
			<g>
				<g>
					<polygon class="st2" points="651.8,279.5 598.9,356.8 524.3,356.8 577.4,279.5 					"/>
				</g>
				<g>
					<polygon class="st2" points="651.8,279.5 705.7,356.8 651.8,434.1 598.9,356.8 					"/>
				</g>
				<g>
					<polygon class="st2" points="598.9,356.8 651.8,434.1 577.4,434.1 524.3,356.8 					"/>
				</g>
			</g>
			<g>
				<g>
					<polygon class="st2" points="396.8,124.5 343.9,201.8 269.2,201.8 322.4,124.5 					"/>
				</g>
				<g>
					<polygon class="st2" points="396.8,124.5 450.6,201.8 396.8,279.3 343.9,201.8 					"/>
				</g>
				<g>
					<polygon class="st2" points="343.9,201.8 396.8,279.3 322.4,279.3 269.2,201.8 					"/>
				</g>
			</g>
			<g>
				<g>
					<g>
						<polygon class="st2" points="525,203.2 471.9,280.5 397.5,280.5 450.6,203.2 						"/>
					</g>
					<g>
						<polygon class="st2" points="525,203.2 471.9,280.5 397.5,280.5 450.6,203.2 						"/>
					</g>
				</g>
				<g>
					<g>
						<polygon class="st2" points="525,203.2 578.8,280.5 525,358 471.9,280.5 						"/>
					</g>
					<g>
						<polygon class="st2" points="525,203.2 578.8,280.5 525,358 471.9,280.5 						"/>
					</g>
				</g>
				<g>
					<polygon class="st2" points="471.9,280.5 525,358 450.6,358 397.5,280.5 					"/>
				</g>
			</g>
			<g>
				<g>
					<g>
						<polygon class="st2" points="524.8,48.4 471.7,125.7 397.3,125.7 450.1,48.4 						"/>
					</g>
					<g>
						<polygon class="st2" points="524.8,48.4 471.7,125.7 397.3,125.7 450.1,48.4 						"/>
					</g>
				</g>
				<g>
					<g>
						<polygon class="st2" points="524.8,48.4 578.4,125.7 524.8,203.2 471.7,125.7 						"/>
					</g>
					<g>
						<polygon class="st2" points="524.8,48.4 578.4,125.7 524.8,203.2 471.7,125.7 						"/>
					</g>
				</g>
				<g>
					<polygon class="st2" points="471.7,125.7 524.8,203.2 450.1,203.2 397.3,125.7 					"/>
				</g>
			</g>
		</g>
		<g>
			<g>
				<g>
					<g>
						
							<linearGradient id="SVGID_1_" gradientUnits="userSpaceOnUse" x1="438.1" y1="625.15" x2="565.6" y2="625.15" gradientTransform="matrix(1 0 0 -1 86 789.5)">
							<stop  offset="0" style="stop-color:#FD7400"/>
							<stop  offset="1" style="stop-color:#FF8E39"/>
						</linearGradient>
						<polygon class="st5" points="651.6,125.7 598.5,203 524.1,203 576.9,125.7 						"/>
					</g>
					<g>
						<polygon class="st6" points="651.6,125.7 598.5,203 524.1,203 576.9,125.7 						"/>
					</g>
				</g>
				<g>
					<g>
						
							<linearGradient id="SVGID_2_" gradientUnits="userSpaceOnUse" x1="512.5" y1="586.4" x2="619.2" y2="586.4" gradientTransform="matrix(1 0 0 -1 86 789.5)">
							<stop  offset="0" style="stop-color:#FF8E39;stop-opacity:0"/>
							<stop  offset="0.1239" style="stop-color:#FF913E;stop-opacity:0.1239"/>
							<stop  offset="0.2664" style="stop-color:#FF994C;stop-opacity:0.2664"/>
							<stop  offset="0.4183" style="stop-color:#FFA663;stop-opacity:0.4183"/>
							<stop  offset="0.5766" style="stop-color:#FFB883;stop-opacity:0.5766"/>
							<stop  offset="0.7399" style="stop-color:#FFD0AD;stop-opacity:0.7399"/>
							<stop  offset="0.9051" style="stop-color:#FFEDDF;stop-opacity:0.9051"/>
							<stop  offset="1" style="stop-color:#FFFFFF"/>
						</linearGradient>
						<polygon class="st7" points="651.6,125.7 705.2,203 651.6,280.5 598.5,203 						"/>
					</g>
					<g>
						<polygon class="st4" points="651.6,125.7 705.2,203 651.6,280.5 598.5,203 						"/>
					</g>
				</g>
				<g>
					<polygon class="st8" points="598.5,203 651.6,280.5 576.9,280.5 524.1,203 					"/>
				</g>
			</g>
			<g>
				<g>
					<polygon class="st9" points="396.8,278.3 343.9,355.6 269.2,355.6 322.4,278.3 					"/>
				</g>
				<g>
					<polygon class="st10" points="396.8,278.3 450.6,355.6 396.8,433.1 343.9,355.6 					"/>
				</g>
				<g>
					<polygon class="st11" points="343.9,355.6 396.8,433.1 322.4,433.1 269.2,355.6 					"/>
				</g>
			</g>
			<g>
				<g>
					<polygon class="st9" points="524.1,356.8 470.9,434.1 396.5,434.1 449.4,356.8 					"/>
				</g>
				<g>
					<polygon class="st10" points="524.1,356.8 577.6,434.1 524.1,511.6 470.9,434.1 					"/>
				</g>
				<g>
					<polygon class="st11" points="470.9,434.1 524.1,511.6 449.4,511.6 396.5,434.1 					"/>
				</g>
			</g>
			<g>
				<g>
					<polygon class="st9" points="651.8,279.5 598.9,356.8 524.3,356.8 577.4,279.5 					"/>
				</g>
				<g>
					<polygon class="st10" points="651.8,279.5 705.7,356.8 651.8,434.1 598.9,356.8 					"/>
				</g>
				<g>
					<polygon class="st11" points="598.9,356.8 651.8,434.1 577.4,434.1 524.3,356.8 					"/>
				</g>
			</g>
			<g>
				<g>
					<polygon class="st9" points="396.8,124.5 343.9,201.8 269.2,201.8 322.4,124.5 					"/>
				</g>
				<g>
					<polygon class="st10" points="396.8,124.5 450.6,201.8 396.8,279.3 343.9,201.8 					"/>
				</g>
				<g>
					<polygon class="st11" points="343.9,201.8 396.8,279.3 322.4,279.3 269.2,201.8 					"/>
				</g>
			</g>
			<g>
				<g>
					<g>
						
							<linearGradient id="SVGID_3_" gradientUnits="userSpaceOnUse" x1="311.5" y1="547.65" x2="439" y2="547.65" gradientTransform="matrix(1 0 0 -1 86 789.5)">
							<stop  offset="0" style="stop-color:#FD7400"/>
							<stop  offset="1" style="stop-color:#FF8E39"/>
						</linearGradient>
						<polygon class="st12" points="525,203.2 471.9,280.5 397.5,280.5 450.6,203.2 						"/>
					</g>
					<g>
						<polygon class="st6" points="525,203.2 471.9,280.5 397.5,280.5 450.6,203.2 						"/>
					</g>
				</g>
				<g>
					<g>
						
							<linearGradient id="SVGID_4_" gradientUnits="userSpaceOnUse" x1="386.0174" y1="508.9" x2="492.7923" y2="508.9" gradientTransform="matrix(1 0 0 -1 86 789.5)">
							<stop  offset="0" style="stop-color:#FF8E39;stop-opacity:0"/>
							<stop  offset="0.1239" style="stop-color:#FF913E;stop-opacity:0.1239"/>
							<stop  offset="0.2664" style="stop-color:#FF994C;stop-opacity:0.2664"/>
							<stop  offset="0.4183" style="stop-color:#FFA663;stop-opacity:0.4183"/>
							<stop  offset="0.5766" style="stop-color:#FFB883;stop-opacity:0.5766"/>
							<stop  offset="0.7399" style="stop-color:#FFD0AD;stop-opacity:0.7399"/>
							<stop  offset="0.9051" style="stop-color:#FFEDDF;stop-opacity:0.9051"/>
							<stop  offset="1" style="stop-color:#FFFFFF"/>
						</linearGradient>
						<polygon class="st13" points="525,203.2 578.8,280.5 525,358 471.9,280.5 						"/>
					</g>
					<g>
						<polygon class="st4" points="525,203.2 578.8,280.5 525,358 471.9,280.5 						"/>
					</g>
				</g>
				<g>
					<polygon class="st8" points="471.9,280.5 525,358 450.6,358 397.5,280.5 					"/>
				</g>
			</g>
			<g>
				<g>
					<g>
						
							<linearGradient id="SVGID_5_" gradientUnits="userSpaceOnUse" x1="311.3" y1="702.45" x2="438.8" y2="702.45" gradientTransform="matrix(1 0 0 -1 86 789.5)">
							<stop  offset="0" style="stop-color:#FD7400"/>
							<stop  offset="1" style="stop-color:#FF8E39"/>
						</linearGradient>
						<polygon class="st14" points="524.8,48.4 471.7,125.7 397.3,125.7 450.1,48.4 						"/>
					</g>
					<g>
						<polygon class="st6" points="524.8,48.4 471.7,125.7 397.3,125.7 450.1,48.4 						"/>
					</g>
				</g>
				<g>
					<g>
						
							<linearGradient id="SVGID_6_" gradientUnits="userSpaceOnUse" x1="385.7" y1="663.7" x2="492.4" y2="663.7" gradientTransform="matrix(1 0 0 -1 86 789.5)">
							<stop  offset="0" style="stop-color:#FF8E39;stop-opacity:0"/>
							<stop  offset="0.1239" style="stop-color:#FF913E;stop-opacity:0.1239"/>
							<stop  offset="0.2664" style="stop-color:#FF994C;stop-opacity:0.2664"/>
							<stop  offset="0.4183" style="stop-color:#FFA663;stop-opacity:0.4183"/>
							<stop  offset="0.5766" style="stop-color:#FFB883;stop-opacity:0.5766"/>
							<stop  offset="0.7399" style="stop-color:#FFD0AD;stop-opacity:0.7399"/>
							<stop  offset="0.9051" style="stop-color:#FFEDDF;stop-opacity:0.9051"/>
							<stop  offset="1" style="stop-color:#FFFFFF"/>
						</linearGradient>
						<polygon class="st15" points="524.8,48.4 578.4,125.7 524.8,203.2 471.7,125.7 						"/>
					</g>
					<g>
						<polygon class="st4" points="524.8,48.4 578.4,125.7 524.8,203.2 471.7,125.7 						"/>
					</g>
				</g>
				<g>
					<polygon class="st8" points="471.7,125.7 524.8,203.2 450.1,203.2 397.3,125.7 					"/>
				</g>
			</g>
		</g>
	</g>
</g>
</svg>
