<?xml version="1.0" encoding="utf-8"?>
<!-- Generator: Adobe Illustrator 22.1.0, SVG Export Plug-In . SVG Version: 6.00 Build 0)  -->
<svg version="1.1" id="Layer_1" xmlns="http://www.w3.org/2000/svg" xmlns:xlink="http://www.w3.org/1999/xlink" x="0px" y="0px"
	 viewBox="0 0 50 50" style="enable-background:new 0 0 50 50;" xml:space="preserve">
<style type="text/css">
	.st0{fill:#EFEFEF;}
</style>
<g>
	<path class="st0" d="M40,1.9H11C9.3,1.9,8,3,8,4.4v41.1c0,1.4,1.3,2.5,3,2.5h29c1.7,0,3-1.1,3-2.5V4.4C43,3,41.7,1.9,40,1.9z
		 M25.5,46c-1.3,0-2.3-0.9-2.3-2c0-1.1,1-2,2.3-2s2.3,0.9,2.3,2C27.8,45.2,26.8,46,25.5,46z M40.7,39.9c0,0.7-0.6,1.2-1.4,1.2H11.8
		c-0.8,0-1.4-0.5-1.4-1.2V5c0-0.7,0.6-1.2,1.4-1.2h27.5c0.8,0,1.4,0.5,1.4,1.2V39.9z"/>
</g>
</svg>
